<svg width="40" height="40" viewBox="0 0 40 40" fill="none" xmlns="http://www.w3.org/2000/svg">
<path d="M0 10C0 4.47715 4.47715 0 10 0H30C35.5228 0 40 4.47715 40 10V30C40 35.5228 35.5228 40 30 40H10C4.47715 40 0 35.5228 0 30V10Z" fill="#FEF9C2"/>
<g clip-path="url(#clip0_564_14041)">
<path d="M26.5341 18.6667C26.8385 20.1609 26.6215 21.7143 25.9193 23.0679C25.2171 24.4214 24.072 25.4934 22.6751 26.1049C21.2782 26.7164 19.7138 26.8305 18.2429 26.4282C16.772 26.026 15.4835 25.1316 14.5923 23.8943C13.701 22.657 13.2608 21.1515 13.3452 19.6289C13.4295 18.1063 14.0333 16.6587 15.0558 15.5274C16.0783 14.3962 17.4578 13.6496 18.9641 13.4123C20.4704 13.175 22.0126 13.4612 23.3334 14.2233" stroke="#D08700" stroke-width="1.33333" stroke-linecap="round" stroke-linejoin="round"/>
<path d="M18 19.3333L20 21.3333L26.6667 14.6666" stroke="#D08700" stroke-width="1.33333" stroke-linecap="round" stroke-linejoin="round"/>
</g>
<defs>
<clipPath id="clip0_564_14041">
<rect width="16" height="16" fill="white" transform="translate(12 12)"/>
</clipPath>
</defs>
</svg>
