<svg width="14" height="14" viewBox="0 0 14 14" fill="none" xmlns="http://www.w3.org/2000/svg">
<g clip-path="url(#clip0_520_8369)">
<path d="M3.5 12.8339V2.3339C3.5 2.02448 3.62292 1.72774 3.84171 1.50895C4.0605 1.29015 4.35725 1.16724 4.66667 1.16724H9.33333C9.64275 1.16724 9.9395 1.29015 10.1583 1.50895C10.3771 1.72774 10.5 2.02448 10.5 2.3339V12.8339H3.5Z" stroke="#202020" stroke-width="1.16667" stroke-linecap="round" stroke-linejoin="round"/>
<path d="M3.49886 7H2.33219C2.02277 7 1.72603 7.12292 1.50724 7.34171C1.28844 7.5605 1.16553 7.85725 1.16553 8.16667V11.6667C1.16553 11.9761 1.28844 12.2728 1.50724 12.4916C1.72603 12.7104 2.02277 12.8333 2.33219 12.8333H3.49886" stroke="#202020" stroke-width="1.16667" stroke-linecap="round" stroke-linejoin="round"/>
<path d="M10.5 5.25H11.6667C11.9761 5.25 12.2728 5.37292 12.4916 5.59171C12.7104 5.8105 12.8333 6.10725 12.8333 6.41667V11.6667C12.8333 11.9761 12.7104 12.2728 12.4916 12.4916C12.2728 12.7104 11.9761 12.8333 11.6667 12.8333H10.5" stroke="#202020" stroke-width="1.16667" stroke-linecap="round" stroke-linejoin="round"/>
<path d="M5.83447 3.5H8.16781" stroke="#202020" stroke-width="1.16667" stroke-linecap="round" stroke-linejoin="round"/>
<path d="M5.83447 5.83276H8.16781" stroke="#202020" stroke-width="1.16667" stroke-linecap="round" stroke-linejoin="round"/>
<path d="M5.83447 8.16724H8.16781" stroke="#202020" stroke-width="1.16667" stroke-linecap="round" stroke-linejoin="round"/>
<path d="M5.83447 10.5H8.16781" stroke="#202020" stroke-width="1.16667" stroke-linecap="round" stroke-linejoin="round"/>
</g>
<defs>
<clipPath id="clip0_520_8369">
<rect width="14" height="14" fill="white"/>
</clipPath>
</defs>
</svg>
