<svg width="24" height="24" viewBox="0 0 24 24" fill="none" xmlns="http://www.w3.org/2000/svg">
<path d="M6.23075 21C5.61108 21 5.08442 20.7868 4.65075 20.3605C4.21692 19.9343 4 19.4167 4 18.8077V5.23075C4 4.61108 4.21692 4.08442 4.65075 3.65075C5.08442 3.21692 5.61108 3 6.23075 3H16.6155V17.6155H6.23075C5.89608 17.6155 5.60733 17.7294 5.3645 17.9572C5.1215 18.1851 5 18.4674 5 18.8042C5 19.1411 5.1215 19.4246 5.3645 19.6548C5.60733 19.8849 5.89608 20 6.23075 20H19V5H20V21H6.23075ZM8.3845 16.6155H15.6155V4H8.3845V16.6155ZM7.3845 16.6155V4H6.23075C5.88208 4 5.58975 4.1215 5.35375 4.3645C5.11792 4.60733 5 4.89608 5 5.23075V17.0212C5.1795 16.9071 5.37075 16.8109 5.57375 16.7327C5.77675 16.6546 5.99575 16.6155 6.23075 16.6155H7.3845Z" fill="white"/>
</svg>
