<svg width="44" height="44" viewBox="0 0 44 44" fill="none" xmlns="http://www.w3.org/2000/svg">
<path d="M0 10C0 4.47715 4.47715 0 10 0H34C39.5228 0 44 4.47715 44 10V34C44 39.5228 39.5228 44 34 44H10C4.47715 44 0 39.5228 0 34V10Z" fill="#F6FEFF"/>
<g clip-path="url(#clip0_562_11006)">
<path d="M22.8333 29.5H29.5" stroke="#059A9F" stroke-width="1.66667" stroke-linecap="round" stroke-linejoin="round"/>
<path d="M29.645 17.6773C30.0856 17.2368 30.3332 16.6394 30.3333 16.0164C30.3333 15.3933 30.0859 14.7958 29.6454 14.3552C29.205 13.9146 28.6075 13.6671 27.9845 13.667C27.3615 13.6669 26.764 13.9143 26.3234 14.3548L15.2017 25.479C15.0082 25.6719 14.8651 25.9094 14.785 26.1706L13.6842 29.7973C13.6627 29.8694 13.661 29.9459 13.6795 30.0189C13.6979 30.0918 13.7358 30.1583 13.789 30.2115C13.8423 30.2646 13.9089 30.3024 13.9818 30.3207C14.0548 30.339 14.1313 30.3373 14.2034 30.3156L17.8309 29.2156C18.0918 29.1363 18.3293 28.9941 18.5225 28.8015L29.645 17.6773Z" stroke="#059A9F" stroke-width="1.66667" stroke-linecap="round" stroke-linejoin="round"/>
</g>
<defs>
<clipPath id="clip0_562_11006">
<rect width="20" height="20" fill="white" transform="translate(12 12)"/>
</clipPath>
</defs>
</svg>
