<svg width="80" height="80" viewBox="0 0 80 80" fill="none" xmlns="http://www.w3.org/2000/svg">
<path d="M0 12C0 5.37258 5.37258 0 12 0H68C74.6274 0 80 5.37258 80 12V68C80 74.6274 74.6274 80 68 80H12C5.37258 80 0 74.6274 0 68V12Z" fill="#F6FEFF"/>
<path d="M58.2495 43.5006C58.1182 43.5991 57.9687 43.6708 57.8097 43.7115C57.6507 43.7522 57.4852 43.7613 57.3227 43.738C57.1602 43.7148 57.0039 43.6598 56.8626 43.5762C56.7214 43.4926 56.598 43.3819 56.4995 43.2506C55.7461 42.2379 54.7654 41.4162 53.6364 40.8517C52.5075 40.2872 51.2617 39.9957 49.9995 40.0006C49.7537 40.0006 49.5133 39.9281 49.3085 39.7922C49.1037 39.6563 48.9435 39.463 48.8479 39.2365C48.783 39.0828 48.7496 38.9175 48.7496 38.7506C48.7496 38.5837 48.783 38.4185 48.8479 38.2647C48.9435 38.0382 49.1037 37.8449 49.3085 37.709C49.5133 37.5731 49.7537 37.5006 49.9995 37.5006C50.7009 37.5005 51.3881 37.3038 51.9833 36.9327C52.5784 36.5616 53.0576 36.0311 53.3663 35.4013C53.675 34.7715 53.801 34.0678 53.7298 33.3701C53.6586 32.6723 53.3932 32.0085 52.9637 31.4541C52.5342 30.8996 51.9578 30.4767 51.3 30.2334C50.6422 29.9902 49.9293 29.9362 49.2424 30.0778C48.5554 30.2193 47.922 30.5507 47.4139 31.0342C46.9059 31.5177 46.5436 32.134 46.3682 32.8131C46.3272 32.9721 46.2552 33.1215 46.1565 33.2527C46.0577 33.3839 45.9341 33.4944 45.7926 33.5778C45.6511 33.6613 45.4946 33.716 45.332 33.739C45.1694 33.7619 45.0038 33.7526 44.8448 33.7115C44.6858 33.6705 44.5364 33.5985 44.4052 33.4998C44.274 33.401 44.1635 33.2774 44.0801 33.1359C43.9966 32.9944 43.9419 32.8379 43.919 32.6753C43.896 32.5127 43.9053 32.3471 43.9464 32.1881C44.1897 31.2464 44.6495 30.3745 45.2892 29.6418C45.9288 28.909 46.7306 28.3357 47.6308 27.9674C48.531 27.5991 49.5048 27.446 50.4746 27.5202C51.4444 27.5944 52.3835 27.894 53.2171 28.395C54.0508 28.896 54.756 29.5847 55.2766 30.4063C55.7973 31.2278 56.119 32.1595 56.2163 33.1273C56.3135 34.0951 56.1835 35.0722 55.8366 35.9808C55.4897 36.8895 54.9356 37.7047 54.2182 38.3615C55.9179 39.0975 57.3955 40.2653 58.5042 41.749C58.6027 41.8807 58.6742 42.0305 58.7147 42.1898C58.7552 42.3492 58.7639 42.515 58.7402 42.6777C58.7166 42.8404 58.6611 42.9968 58.5768 43.138C58.4926 43.2792 58.3814 43.4024 58.2495 43.5006ZM49.8307 53.1256C49.9212 53.2679 49.9819 53.427 50.0093 53.5933C50.0366 53.7597 50.0301 53.9298 49.99 54.0936C49.9499 54.2573 49.877 54.4113 49.7759 54.5461C49.6747 54.681 49.5474 54.794 49.4014 54.8784C49.2554 54.9628 49.0939 55.0167 48.9266 55.0371C48.7592 55.0574 48.5895 55.0437 48.4276 54.9967C48.2657 54.9497 48.1149 54.8705 47.9844 54.7638C47.8539 54.657 47.7464 54.525 47.6682 54.3756C46.8808 53.0423 45.7594 51.9373 44.4145 51.1697C43.0697 50.402 41.548 49.9983 39.9995 49.9983C38.451 49.9983 36.9293 50.402 35.5845 51.1697C34.2396 51.9373 33.1182 53.0423 32.3307 54.3756C32.2526 54.525 32.1451 54.657 32.0146 54.7638C31.8841 54.8705 31.7333 54.9497 31.5714 54.9967C31.4095 55.0437 31.2398 55.0574 31.0724 55.0371C30.9051 55.0167 30.7435 54.9628 30.5976 54.8784C30.4516 54.794 30.3242 54.681 30.2231 54.5461C30.122 54.4113 30.0491 54.2573 30.009 54.0936C29.9689 53.9298 29.9624 53.7597 29.9897 53.5933C30.0171 53.427 30.0778 53.2679 30.1682 53.1256C31.3801 51.0434 33.2279 49.4048 35.4401 48.4506C34.1953 47.4975 33.2805 46.1783 32.8242 44.6785C32.3679 43.1786 32.3931 41.5734 32.8962 40.0886C33.3994 38.6038 34.3552 37.3139 35.6293 36.4004C36.9034 35.4869 38.4317 34.9956 39.9995 34.9956C41.5673 34.9956 43.0956 35.4869 44.3697 36.4004C45.6438 37.3139 46.5996 38.6038 47.1028 40.0886C47.6059 41.5734 47.6311 43.1786 47.1748 44.6785C46.7185 46.1783 45.8037 47.4975 44.5589 48.4506C46.7711 49.4048 48.6189 51.0434 49.8307 53.1256ZM39.9995 47.5006C40.9884 47.5006 41.9551 47.2074 42.7773 46.658C43.5996 46.1085 44.2405 45.3277 44.6189 44.414C44.9973 43.5004 45.0963 42.4951 44.9034 41.5252C44.7105 40.5552 44.2343 39.6643 43.535 38.9651C42.8358 38.2658 41.9449 37.7896 40.9749 37.5967C40.005 37.4038 38.9997 37.5028 38.0861 37.8812C37.1724 38.2596 36.3916 38.9005 35.8421 39.7228C35.2927 40.545 34.9995 41.5117 34.9995 42.5006C34.9995 43.8267 35.5263 45.0985 36.464 46.0361C37.4016 46.9738 38.6734 47.5006 39.9995 47.5006ZM31.2495 38.7506C31.2495 38.4191 31.1178 38.1011 30.8834 37.8667C30.649 37.6323 30.331 37.5006 29.9995 37.5006C29.2981 37.5005 28.6108 37.3038 28.0157 36.9327C27.4206 36.5616 26.9414 36.0311 26.6327 35.4013C26.3239 34.7715 26.198 34.0678 26.2692 33.3701C26.3404 32.6723 26.6058 32.0085 27.0353 31.4541C27.4648 30.8996 28.0412 30.4767 28.699 30.2334C29.3568 29.9902 30.0697 29.9362 30.7566 30.0778C31.4436 30.2193 32.077 30.5507 32.5851 31.0342C33.0931 31.5177 33.4554 32.134 33.6307 32.8131C33.7136 33.1343 33.9207 33.4093 34.2064 33.5778C34.4921 33.7463 34.833 33.7944 35.1542 33.7115C35.4753 33.6287 35.7504 33.4216 35.9189 33.1359C36.0874 32.8502 36.1355 32.5093 36.0526 32.1881C35.8093 31.2464 35.3495 30.3745 34.7098 29.6418C34.0702 28.909 33.2684 28.3357 32.3682 27.9674C31.468 27.5991 30.4942 27.446 29.5244 27.5202C28.5546 27.5944 27.6155 27.894 26.7819 28.395C25.9482 28.896 25.243 29.5847 24.7223 30.4063C24.2017 31.2278 23.8799 32.1595 23.7827 33.1273C23.6855 34.0951 23.8155 35.0722 24.1624 35.9808C24.5092 36.8895 25.0634 37.7047 25.7807 38.3615C24.0828 39.0982 22.6069 40.266 21.4995 41.749C21.3004 42.0143 21.2148 42.3477 21.2615 42.676C21.3082 43.0044 21.4835 43.3007 21.7487 43.4998C22.0139 43.6989 22.3474 43.7845 22.6757 43.7378C23.0041 43.6911 23.3004 43.5158 23.4995 43.2506C24.2529 42.2379 25.2336 41.4162 26.3626 40.8517C27.4915 40.2872 28.7373 39.9957 29.9995 40.0006C30.331 40.0006 30.649 39.8689 30.8834 39.6345C31.1178 39.4001 31.2495 39.0821 31.2495 38.7506Z" fill="#059A9F"/>
</svg>
