<svg width="36" height="40" viewBox="0 0 36 40" fill="none" xmlns="http://www.w3.org/2000/svg">
<rect y="2" width="36" height="36" rx="16" fill="#059A9F"/>
<path d="M11 29C10.45 29 9.97917 28.8042 9.5875 28.4125C9.19583 28.0208 9 27.55 9 27V17C9 15.3333 9.58333 13.9167 10.75 12.75C11.9167 11.5833 13.3333 11 15 11H21C22.6667 11 24.0833 11.5833 25.25 12.75C26.4167 13.9167 27 15.3333 27 17V27C27 27.55 26.8042 28.0208 26.4125 28.4125C26.0208 28.8042 25.55 29 25 29H11ZM11 27H25V17C25 15.9 24.6083 14.9583 23.825 14.175C23.0417 13.3917 22.1 13 21 13H15C13.9 13 12.9583 13.3917 12.175 14.175C11.3917 14.9583 11 15.9 11 17V27ZM15 20C14.45 20 13.9792 19.8042 13.5875 19.4125C13.1958 19.0208 13 18.55 13 18C13 17.45 13.1958 16.9792 13.5875 16.5875C13.9792 16.1958 14.45 16 15 16C15.55 16 16.0208 16.1958 16.4125 16.5875C16.8042 16.9792 17 17.45 17 18C17 18.55 16.8042 19.0208 16.4125 19.4125C16.0208 19.8042 15.55 20 15 20ZM21 20C20.45 20 19.9792 19.8042 19.5875 19.4125C19.1958 19.0208 19 18.55 19 18C19 17.45 19.1958 16.9792 19.5875 16.5875C19.9792 16.1958 20.45 16 21 16C21.55 16 22.0208 16.1958 22.4125 16.5875C22.8042 16.9792 23 17.45 23 18C23 18.55 22.8042 19.0208 22.4125 19.4125C22.0208 19.8042 21.55 20 21 20ZM13 27V25C13 24.45 13.1958 23.9792 13.5875 23.5875C13.9792 23.1958 14.45 23 15 23H21C21.55 23 22.0208 23.1958 22.4125 23.5875C22.8042 23.9792 23 24.45 23 25V27H21V25H19V27H17V25H15V27H13Z" fill="white"/>
</svg>
