<svg width="24" height="24" viewBox="0 0 24 24" fill="none" xmlns="http://www.w3.org/2000/svg">
<path d="M19.0329 4.89739C17.1522 3.02379 14.6504 1.9913 11.9878 1.99023C9.33116 1.99023 6.82539 3.0218 4.9324 4.89494C3.03604 6.77129 1.99073 9.26484 1.98828 11.9071V11.9102V11.912C1.98859 13.5113 2.40876 15.1247 3.20634 16.5973L2.01562 22.0095L7.49009 20.7642C8.87662 21.463 10.4237 21.8314 11.984 21.832H11.988C14.6442 21.832 17.15 20.8003 19.0433 18.927C20.9413 17.0491 21.9871 14.5588 21.9883 11.9148C21.989 9.28943 20.9396 6.79725 19.0329 4.89739ZM11.9878 20.2695H11.9843C10.5833 20.2689 9.19507 19.9172 7.96998 19.252L7.7111 19.1115L4.07082 19.9395L4.86153 16.3459L4.7091 16.0831C3.95123 14.7761 3.55076 13.3334 3.55076 11.9104C3.55366 7.30433 7.33812 3.55271 11.9875 3.55271C14.2336 3.55363 16.3441 4.42437 17.9301 6.00426C19.5401 7.60858 20.4264 9.70746 20.4257 11.9143C20.4238 16.5214 16.6386 20.2695 11.9878 20.2695Z" fill="black"/>
<path d="M9.26682 7.53711H8.82847C8.67589 7.53711 8.42816 7.59423 8.2186 7.82227C8.0089 8.05045 7.41797 8.60198 7.41797 9.72366C7.41797 10.8453 8.2377 11.9291 8.35194 12.0814C8.46634 12.2335 9.93427 14.6089 12.2592 15.5227C14.1914 16.2821 14.5847 16.131 15.004 16.093C15.4234 16.0551 16.3574 15.5416 16.548 15.0093C16.7386 14.4771 16.7386 14.0207 16.6815 13.9254C16.6242 13.8304 16.4716 13.7734 16.243 13.6595C16.0142 13.5454 14.8931 12.9845 14.6834 12.9083C14.4737 12.8324 14.3213 12.7944 14.1687 13.0227C14.0161 13.2506 13.5669 13.7779 13.4334 13.93C13.3001 14.0823 13.1666 14.1013 12.9378 13.9872C12.709 13.8729 11.9798 13.6279 11.1061 12.8514C10.4259 12.247 9.95398 11.4763 9.82049 11.2481C9.68715 11.0201 9.80628 10.8967 9.92099 10.7829C10.0238 10.6808 10.1626 10.5412 10.277 10.4082C10.3913 10.275 10.4238 10.18 10.5002 10.0279C10.5764 9.87578 10.5382 9.7426 10.4811 9.62866C10.4238 9.51457 9.98483 8.38723 9.78139 7.93636H9.78154C9.61017 7.55666 9.42979 7.54383 9.26682 7.53711Z" fill="black"/>
</svg>
