<svg width="20" height="20" viewBox="0 0 20 20" fill="none" xmlns="http://www.w3.org/2000/svg">
<path d="M3.33317 3.33301L16.6665 16.6663M11.6665 11.8631C11.2242 12.259 10.6401 12.4997 9.99984 12.4997C8.61913 12.4997 7.49984 11.3804 7.49984 9.99967C7.49984 9.35938 7.74055 8.7753 8.13642 8.33301M16.3396 13.0061C16.8158 12.5916 17.2417 12.1746 17.6084 11.7888C18.5748 10.772 18.5748 9.22732 17.6084 8.21059C15.9786 6.49578 13.1794 4.16634 9.99984 4.16634C9.25703 4.16634 8.53498 4.29348 7.84375 4.51021M5.4165 5.66916C4.20103 6.44504 3.16453 7.39699 2.39126 8.21059C1.42492 9.22732 1.42492 10.772 2.39126 11.7888C4.02108 13.5036 6.82024 15.833 9.99984 15.833C11.5566 15.833 13.0221 15.2746 14.3039 14.5034" stroke="#202020" stroke-width="1.25" stroke-linecap="round"/>
</svg>
