<svg width="24" height="24" viewBox="0 0 24 24" fill="none" xmlns="http://www.w3.org/2000/svg">
<path d="M8.00012 8V6C8.00012 3.79086 9.79098 2 12.0001 2L18.0001 2C20.2093 2 22.0001 3.79086 22.0001 6V12C22.0001 14.2091 20.2093 16 18.0001 16H16.0001M8.00012 8H6.00012C3.79098 8 2.00012 9.79086 2.00012 12V18C2.00012 20.2091 3.79098 22 6.00012 22H12.0001C14.2093 22 16.0001 20.2091 16.0001 18V16M8.00012 8H12.0001C14.2093 8 16.0001 9.79086 16.0001 12V16" stroke="#059A9F" stroke-width="1.5" stroke-linejoin="round"/>
</svg>
