<svg width="24" height="24" viewBox="0 0 24 24" fill="none" xmlns="http://www.w3.org/2000/svg">
<path d="M12 20.9616C9.991 20.3655 8.32208 19.1485 6.99325 17.3106C5.66442 15.4728 5 13.4026 5 11.1001V5.6924L12 3.07715L19 5.6924V11.1001C19 13.4026 18.3356 15.4728 17.0068 17.3106C15.6779 19.1485 14.009 20.3655 12 20.9616ZM12 19.9001C13.7333 19.3501 15.1667 18.2501 16.3 16.6001C17.4333 14.9501 18 13.1168 18 11.1001V6.37515L12 4.1444L6 6.37515V11.1001C6 13.1168 6.56667 14.9501 7.7 16.6001C8.83333 18.2501 10.2667 19.3501 12 19.9001Z" fill="white"/>
</svg>
