<svg width="32" height="32" viewBox="0 0 32 32" fill="none" xmlns="http://www.w3.org/2000/svg">
<path d="M29.3333 22.6667C29.3333 23.3739 29.0523 24.0522 28.5522 24.5523C28.0521 25.0524 27.3739 25.3333 26.6666 25.3333H9.10396C8.39677 25.3335 7.71861 25.6145 7.21863 26.1147L4.28263 29.0507C4.15023 29.183 3.98156 29.2732 3.79794 29.3097C3.61433 29.3462 3.424 29.3275 3.25104 29.2558C3.07807 29.1842 2.93023 29.0629 2.82621 28.9072C2.72218 28.7516 2.66665 28.5685 2.66663 28.3813V6.66667C2.66663 5.95942 2.94758 5.28115 3.44767 4.78105C3.94777 4.28095 4.62605 4 5.33329 4H26.6666C27.3739 4 28.0521 4.28095 28.5522 4.78105C29.0523 5.28115 29.3333 5.95942 29.3333 6.66667V22.6667Z" stroke="white" stroke-width="2.66667" stroke-linecap="round" stroke-linejoin="round"/>
</svg>
