<svg width="48" height="48" viewBox="0 0 48 48" fill="none" xmlns="http://www.w3.org/2000/svg">
<path d="M0 24C0 10.7452 10.7452 0 24 0C37.2548 0 48 10.7452 48 24C48 37.2548 37.2548 48 24 48C10.7452 48 0 37.2548 0 24Z" fill="#5B4CCC"/>
<path d="M18.2307 33C17.6111 33 17.0844 32.7868 16.6507 32.3605C16.2169 31.9343 16 31.4167 16 30.8077V17.2307C16 16.6111 16.2169 16.0844 16.6507 15.6508C17.0844 15.2169 17.6111 15 18.2307 15H28.6155V29.6155H18.2307C17.8961 29.6155 17.6073 29.7294 17.3645 29.9572C17.1215 30.1851 17 30.4674 17 30.8042C17 31.1411 17.1215 31.4246 17.3645 31.6548C17.6073 31.8849 17.8961 32 18.2307 32H31V17H32V33H18.2307ZM20.3845 28.6155H27.6155V16H20.3845V28.6155ZM19.3845 28.6155V16H18.2307C17.8821 16 17.5897 16.1215 17.3537 16.3645C17.1179 16.6073 17 16.8961 17 17.2307V29.0212C17.1795 28.9071 17.3707 28.8109 17.5737 28.7327C17.7767 28.6546 17.9957 28.6155 18.2307 28.6155H19.3845Z" fill="white"/>
</svg>
