<svg width="48" height="48" viewBox="0 0 48 48" fill="none" xmlns="http://www.w3.org/2000/svg">
<mask id="path-1-inside-1_615_2990" fill="white">
<path d="M0 24C0 10.7452 10.7452 0 24 0C37.2548 0 48 10.7452 48 24C48 37.2548 37.2548 48 24 48C10.7452 48 0 37.2548 0 24Z"/>
</mask>
<path d="M0 24C0 10.7452 10.7452 0 24 0C37.2548 0 48 10.7452 48 24C48 37.2548 37.2548 48 24 48C10.7452 48 0 37.2548 0 24Z" fill="#5B4CCC"/>
<path d="M24 48V46C11.8497 46 2 36.1503 2 24H0H-2C-2 38.3594 9.6406 50 24 50V48ZM48 24H46C46 36.1503 36.1503 46 24 46V48V50C38.3594 50 50 38.3594 50 24H48ZM24 0V2C36.1503 2 46 11.8497 46 24H48H50C50 9.6406 38.3594 -2 24 -2V0ZM24 0V-2C9.6406 -2 -2 9.6406 -2 24H0H2C2 11.8497 11.8497 2 24 2V0Z" fill="#5B4CCC" mask="url(#path-1-inside-1_615_2990)"/>
<path d="M19.5 28.5H25.5V27.5H19.5V28.5ZM19.5 24.5H28.5V23.5H19.5V24.5ZM19.5 20.5H28.5V19.5H19.5V20.5ZM17.6155 32C17.1552 32 16.7708 31.8458 16.4625 31.5375C16.1542 31.2292 16 30.8448 16 30.3845V17.6155C16 17.1552 16.1542 16.7708 16.4625 16.4625C16.7708 16.1542 17.1552 16 17.6155 16H30.3845C30.8448 16 31.2292 16.1542 31.5375 16.4625C31.8458 16.7708 32 17.1552 32 17.6155V30.3845C32 30.8448 31.8458 31.2292 31.5375 31.5375C31.2292 31.8458 30.8448 32 30.3845 32H17.6155ZM17.6155 31H30.3845C30.5385 31 30.6796 30.9359 30.8077 30.8077C30.9359 30.6796 31 30.5385 31 30.3845V17.6155C31 17.4615 30.9359 17.3204 30.8077 17.1923C30.6796 17.0641 30.5385 17 30.3845 17H17.6155C17.4615 17 17.3204 17.0641 17.1923 17.1923C17.0641 17.3204 17 17.4615 17 17.6155V30.3845C17 30.5385 17.0641 30.6796 17.1923 30.8077C17.3204 30.9359 17.4615 31 17.6155 31Z" fill="white"/>
</svg>
