<svg width="48" height="48" viewBox="0 0 48 48" fill="none" xmlns="http://www.w3.org/2000/svg">
<path d="M0 24C0 10.7452 10.7452 0 24 0C37.2548 0 48 10.7452 48 24C48 37.2548 37.2548 48 24 48C10.7452 48 0 37.2548 0 24Z" fill="#5B4CCC"/>
<path d="M24.0045 27.1538C25.0207 27.1538 25.8829 26.7981 26.5913 26.0868C27.2996 25.3754 27.6538 24.5117 27.6538 23.4955C27.6538 22.4793 27.2981 21.6171 26.5868 20.9087C25.8754 20.2004 25.0117 19.8462 23.9955 19.8462C22.9794 19.8462 22.1171 20.2019 21.4088 20.9133C20.7004 21.6246 20.3463 22.4883 20.3463 23.5045C20.3463 24.5207 20.7019 25.3829 21.4133 26.0913C22.1246 26.7996 22.9884 27.1538 24.0045 27.1538ZM24 26.2C23.25 26.2 22.6125 25.9375 22.0875 25.4125C21.5625 24.8875 21.3 24.25 21.3 23.5C21.3 22.75 21.5625 22.1125 22.0875 21.5875C22.6125 21.0625 23.25 20.8 24 20.8C24.75 20.8 25.3875 21.0625 25.9125 21.5875C26.4375 22.1125 26.7 22.75 26.7 23.5C26.7 24.25 26.4375 24.8875 25.9125 25.4125C25.3875 25.9375 24.75 26.2 24 26.2ZM24.0028 30C21.8368 30 19.8628 29.4106 18.0808 28.2317C16.2988 27.0529 14.9642 25.4757 14.077 23.5C14.9642 21.5243 16.2979 19.9471 18.078 18.7682C19.8582 17.5894 21.8313 17 23.9973 17C26.1633 17 28.1373 17.5894 29.9193 18.7682C31.7013 19.9471 33.0359 21.5243 33.923 23.5C33.0359 25.4757 31.7022 27.0529 29.922 28.2317C28.1419 29.4106 26.1688 30 24.0028 30ZM24 29C25.8834 29 27.6125 28.5042 29.1875 27.5125C30.7625 26.5208 31.9667 25.1833 32.8 23.5C31.9667 21.8167 30.7625 20.4792 29.1875 19.4875C27.6125 18.4958 25.8834 18 24 18C22.1167 18 20.3875 18.4958 18.8125 19.4875C17.2375 20.4792 16.0334 21.8167 15.2 23.5C16.0334 25.1833 17.2375 26.5208 18.8125 27.5125C20.3875 28.5042 22.1167 29 24 29Z" fill="white"/>
</svg>
