<svg width="24" height="24" viewBox="0 0 24 24" fill="none" xmlns="http://www.w3.org/2000/svg">
<path d="M17.7584 4.80153V7.68084M19.1981 6.24118H16.3188M11.2922 5.38747C11.3231 5.22234 11.4107 5.0732 11.5399 4.96588C11.6691 4.85855 11.8318 4.7998 11.9998 4.7998C12.1678 4.7998 12.3305 4.85855 12.4597 4.96588C12.5889 5.0732 12.6766 5.22234 12.7074 5.38747L13.4639 9.38827C13.5177 9.67271 13.6559 9.93434 13.8606 10.139C14.0653 10.3437 14.3269 10.4819 14.6113 10.5357L18.6121 11.2922C18.7773 11.3231 18.9264 11.4107 19.0337 11.5399C19.1411 11.6691 19.1998 11.8318 19.1998 11.9998C19.1998 12.1678 19.1411 12.3305 19.0337 12.4597C18.9264 12.5889 18.7773 12.6766 18.6121 12.7074L14.6113 13.4639C14.3269 13.5177 14.0653 13.6559 13.8606 13.8606C13.6559 14.0653 13.5177 14.3269 13.4639 14.6113L12.7074 18.6121C12.6766 18.7773 12.5889 18.9264 12.4597 19.0337C12.3305 19.1411 12.1678 19.1998 11.9998 19.1998C11.8318 19.1998 11.6691 19.1411 11.5399 19.0337C11.4107 18.9264 11.3231 18.7773 11.2922 18.6121L10.5357 14.6113C10.4819 14.3269 10.3437 14.0653 10.139 13.8606C9.93434 13.6559 9.67271 13.5177 9.38827 13.4639L5.38747 12.7074C5.22234 12.6766 5.0732 12.5889 4.96588 12.4597C4.85855 12.3305 4.7998 12.1678 4.7998 11.9998C4.7998 11.8318 4.85855 11.6691 4.96588 11.5399C5.0732 11.4107 5.22234 11.3231 5.38747 11.2922L9.38827 10.5357C9.67271 10.4819 9.93434 10.3437 10.139 10.139C10.3437 9.93434 10.4819 9.67271 10.5357 9.38827L11.2922 5.38747ZM7.68084 17.7584C7.68084 18.5535 7.03628 19.1981 6.24118 19.1981C5.44608 19.1981 4.80153 18.5535 4.80153 17.7584C4.80153 16.9633 5.44608 16.3188 6.24118 16.3188C7.03628 16.3188 7.68084 16.9633 7.68084 17.7584Z" stroke="#9C8EF4" stroke-width="1.10759" stroke-linecap="round" stroke-linejoin="round"/>
</svg>
