<svg width="24" height="24" viewBox="0 0 24 24" fill="none" xmlns="http://www.w3.org/2000/svg">
<g clip-path="url(#clip0_357_7589)">
<path d="M24 0H0V24H24V0Z" fill="#6600FF"/>
<g filter="url(#filter0_f_357_7589)">
<path d="M4.84031 25.1572C10.0981 25.1572 14.3603 18.7638 14.3603 10.8772C14.3603 2.99054 10.0981 -3.40283 4.84031 -3.40283C-0.417438 -3.40283 -4.67969 2.99054 -4.67969 10.8772C-4.67969 18.7638 -0.417438 25.1572 4.84031 25.1572Z" fill="#1EFFC7"/>
<path d="M21.9602 26.2778C27.2179 26.2778 31.4802 19.8844 31.4802 11.9978C31.4802 4.11115 27.2179 -2.28223 21.9602 -2.28223C16.7024 -2.28223 12.4402 4.11115 12.4402 11.9978C12.4402 19.8844 16.7024 26.2778 21.9602 26.2778Z" fill="#6600FF"/>
<path d="M17.0532 33.0761C22.311 33.0761 26.5732 26.6827 26.5732 18.7961C26.5732 10.9095 22.311 4.51611 17.0532 4.51611C11.7955 4.51611 7.5332 10.9095 7.5332 18.7961C7.5332 26.6827 11.7955 33.0761 17.0532 33.0761Z" fill="#1EFFC7"/>
<path d="M27.7466 18.1157C33.0043 18.1157 37.2666 11.7223 37.2666 3.83566C37.2666 -4.05096 33.0043 -10.4443 27.7466 -10.4443C22.4888 -10.4443 18.2266 -4.05096 18.2266 3.83566C18.2266 11.7223 22.4888 18.1157 27.7466 18.1157Z" fill="#1EFFC7"/>
<path d="M10.3867 19.5585C15.6445 19.5585 19.9067 13.1652 19.9067 5.27854C19.9067 -2.60809 15.6445 -9.00146 10.3867 -9.00146C5.12895 -9.00146 0.866699 -2.60809 0.866699 5.27854C0.866699 13.1652 5.12895 19.5585 10.3867 19.5585Z" fill="#6600FF"/>
<path d="M10.76 32.5971C16.0177 32.5971 20.28 26.2037 20.28 18.3171C20.28 10.4305 16.0177 4.03711 10.76 4.03711C5.50224 4.03711 1.23999 10.4305 1.23999 18.3171C1.23999 26.2037 5.50224 32.5971 10.76 32.5971Z" fill="#1EFFC7"/>
</g>
</g>
<defs>
<filter id="filter0_f_357_7589" x="-17.5597" y="-23.3243" width="67.7063" height="69.2805" filterUnits="userSpaceOnUse" color-interpolation-filters="sRGB">
<feFlood flood-opacity="0" result="BackgroundImageFix"/>
<feBlend mode="normal" in="SourceGraphic" in2="BackgroundImageFix" result="shape"/>
<feGaussianBlur stdDeviation="6.44" result="effect1_foregroundBlur_357_7589"/>
</filter>
<clipPath id="clip0_357_7589">
<rect width="24" height="24" rx="12" fill="white"/>
</clipPath>
</defs>
</svg>
