<svg width="36" height="36" viewBox="0 0 36 36" fill="none" xmlns="http://www.w3.org/2000/svg">
<rect width="36" height="36" rx="16" fill="#9C8EF4"/>
<path d="M11 27C10.45 27 9.97917 26.8042 9.5875 26.4125C9.19583 26.0208 9 25.55 9 25V15C9 13.3333 9.58333 11.9167 10.75 10.75C11.9167 9.58333 13.3333 9 15 9H21C22.6667 9 24.0833 9.58333 25.25 10.75C26.4167 11.9167 27 13.3333 27 15V25C27 25.55 26.8042 26.0208 26.4125 26.4125C26.0208 26.8042 25.55 27 25 27H11ZM11 25H25V15C25 13.9 24.6083 12.9583 23.825 12.175C23.0417 11.3917 22.1 11 21 11H15C13.9 11 12.9583 11.3917 12.175 12.175C11.3917 12.9583 11 13.9 11 15V25ZM15 18C14.45 18 13.9792 17.8042 13.5875 17.4125C13.1958 17.0208 13 16.55 13 16C13 15.45 13.1958 14.9792 13.5875 14.5875C13.9792 14.1958 14.45 14 15 14C15.55 14 16.0208 14.1958 16.4125 14.5875C16.8042 14.9792 17 15.45 17 16C17 16.55 16.8042 17.0208 16.4125 17.4125C16.0208 17.8042 15.55 18 15 18ZM21 18C20.45 18 19.9792 17.8042 19.5875 17.4125C19.1958 17.0208 19 16.55 19 16C19 15.45 19.1958 14.9792 19.5875 14.5875C19.9792 14.1958 20.45 14 21 14C21.55 14 22.0208 14.1958 22.4125 14.5875C22.8042 14.9792 23 15.45 23 16C23 16.55 22.8042 17.0208 22.4125 17.4125C22.0208 17.8042 21.55 18 21 18ZM13 25V23C13 22.45 13.1958 21.9792 13.5875 21.5875C13.9792 21.1958 14.45 21 15 21H21C21.55 21 22.0208 21.1958 22.4125 21.5875C22.8042 21.9792 23 22.45 23 23V25H21V23H19V25H17V23H15V25H13Z" fill="white"/>
</svg>
