<svg width="15" height="15" viewBox="0 0 15 15" fill="none" xmlns="http://www.w3.org/2000/svg">
<path d="M1.64103 14.7692C1.18974 14.7692 0.803419 14.6085 0.482051 14.2872C0.160684 13.9658 0 13.5795 0 13.1282V4.92308C0 3.55556 0.478632 2.39316 1.4359 1.4359C2.39316 0.478632 3.55556 0 4.92308 0H9.84615C11.2137 0 12.3761 0.478632 13.3333 1.4359C14.2906 2.39316 14.7692 3.55556 14.7692 4.92308V13.1282C14.7692 13.5795 14.6085 13.9658 14.2872 14.2872C13.9658 14.6085 13.5795 14.7692 13.1282 14.7692H1.64103ZM1.64103 13.1282H13.1282V4.92308C13.1282 4.02051 12.8068 3.24786 12.1641 2.60513C11.5214 1.96239 10.7487 1.64103 9.84615 1.64103H4.92308C4.02051 1.64103 3.24786 1.96239 2.60513 2.60513C1.96239 3.24786 1.64103 4.02051 1.64103 4.92308V13.1282ZM4.92308 7.38461C4.47179 7.38461 4.08547 7.22393 3.7641 6.90256C3.44273 6.5812 3.28205 6.19487 3.28205 5.74359C3.28205 5.29231 3.44273 4.90598 3.7641 4.58462C4.08547 4.26325 4.47179 4.10256 4.92308 4.10256C5.37436 4.10256 5.76068 4.26325 6.08205 4.58462C6.40342 4.90598 6.5641 5.29231 6.5641 5.74359C6.5641 6.19487 6.40342 6.5812 6.08205 6.90256C5.76068 7.22393 5.37436 7.38461 4.92308 7.38461ZM9.84615 7.38461C9.39487 7.38461 9.00855 7.22393 8.68718 6.90256C8.36581 6.5812 8.20513 6.19487 8.20513 5.74359C8.20513 5.29231 8.36581 4.90598 8.68718 4.58462C9.00855 4.26325 9.39487 4.10256 9.84615 4.10256C10.2974 4.10256 10.6838 4.26325 11.0051 4.58462C11.3265 4.90598 11.4872 5.29231 11.4872 5.74359C11.4872 6.19487 11.3265 6.5812 11.0051 6.90256C10.6838 7.22393 10.2974 7.38461 9.84615 7.38461ZM3.28205 13.1282V11.4872C3.28205 11.0359 3.44273 10.6496 3.7641 10.3282C4.08547 10.0068 4.47179 9.84615 4.92308 9.84615H9.84615C10.2974 9.84615 10.6838 10.0068 11.0051 10.3282C11.3265 10.6496 11.4872 11.0359 11.4872 11.4872V13.1282H9.84615V11.4872H8.20513V13.1282H6.5641V11.4872H4.92308V13.1282H3.28205Z" fill="#5B4CCC"/>
</svg>
