<svg width="48" height="48" viewBox="0 0 48 48" fill="none" xmlns="http://www.w3.org/2000/svg">
<path d="M0 7.2C0 3.22355 3.22355 0 7.2 0H40.8C44.7764 0 48 3.22355 48 7.2V40.8C48 44.7764 44.7765 48 40.8 48H7.2C3.22355 48 0 44.7765 0 40.8V7.2Z" fill="#F3F1FF"/>
<path d="M24 20V16H20" stroke="#5B4CCC" stroke-width="1.5" stroke-linecap="round" stroke-linejoin="round"/>
<path d="M30 20H18C16.8954 20 16 20.8954 16 22V30C16 31.1046 16.8954 32 18 32H30C31.1046 32 32 31.1046 32 30V22C32 20.8954 31.1046 20 30 20Z" stroke="#5B4CCC" stroke-width="1.5" stroke-linecap="round" stroke-linejoin="round"/>
<path d="M14 26H16" stroke="#5B4CCC" stroke-width="1.5" stroke-linecap="round" stroke-linejoin="round"/>
<path d="M32 26H34" stroke="#5B4CCC" stroke-width="1.5" stroke-linecap="round" stroke-linejoin="round"/>
<path d="M27 25V27" stroke="#5B4CCC" stroke-width="1.5" stroke-linecap="round" stroke-linejoin="round"/>
<path d="M21 25V27" stroke="#5B4CCC" stroke-width="1.5" stroke-linecap="round" stroke-linejoin="round"/>
</svg>
