<svg width="30" height="28" viewBox="0 0 30 28" fill="none" xmlns="http://www.w3.org/2000/svg">
<path d="M28 19.9997C28 20.7069 27.7191 21.3852 27.219 21.8853C26.7189 22.3854 26.0406 22.6663 25.3334 22.6663H7.77071C7.06352 22.6665 6.38535 22.9475 5.88537 23.4477L2.94937 26.3837C2.81698 26.516 2.64831 26.6062 2.46469 26.6427C2.28107 26.6792 2.09075 26.6605 1.91778 26.5888C1.74482 26.5172 1.59698 26.3959 1.49295 26.2402C1.38893 26.0846 1.3334 25.9016 1.33337 25.7143V3.99967C1.33337 3.29243 1.61433 2.61415 2.11442 2.11406C2.61452 1.61396 3.2928 1.33301 4.00004 1.33301H25.3334C26.0406 1.33301 26.7189 1.61396 27.219 2.11406C27.7191 2.61415 28 3.29243 28 3.99967V19.9997Z" stroke="white" stroke-width="2.66667" stroke-linecap="round" stroke-linejoin="round"/>
</svg>
