<svg width="20" height="20" viewBox="0 0 20 20" fill="none" xmlns="http://www.w3.org/2000/svg">
<path d="M16.6665 2.5H6.6665C5.74603 2.5 4.99984 3.24619 4.99984 4.16667V6.66667C4.99984 7.1269 4.62674 7.5 4.1665 7.5C2.78579 7.5 1.6665 8.61929 1.6665 10C1.6665 11.3807 2.78579 12.5 4.1665 12.5C4.62674 12.5 4.99984 12.8731 4.99984 13.3333V15.8333C4.99984 16.7538 5.74603 17.5 6.6665 17.5H8.33317C8.79341 17.5 9.1665 17.1269 9.1665 16.6667C9.1665 15.286 10.2858 14.1667 11.6665 14.1667C13.0472 14.1667 14.1665 15.286 14.1665 16.6667C14.1665 17.1269 14.5396 17.5 14.9998 17.5H16.6665C17.587 17.5 18.3332 16.7538 18.3332 15.8333V13.3333C18.3332 12.8731 17.9601 12.5 17.4998 12.5C16.1191 12.5 14.9998 11.3807 14.9998 10C14.9998 8.61929 16.1191 7.5 17.4998 7.5C17.9601 7.5 18.3332 7.1269 18.3332 6.66667V4.16667C18.3332 3.24619 17.587 2.5 16.6665 2.5Z" stroke="#2A2A2A" stroke-width="1.25" stroke-linejoin="round"/>
</svg>
