<svg width="48" height="48" viewBox="0 0 48 48" fill="none" xmlns="http://www.w3.org/2000/svg">
<rect width="48" height="48" rx="8" fill="#F3F1FF"/>
<path d="M20.0001 20V18C20.0001 15.7909 21.791 14 24.0001 14L30.0001 14C32.2093 14 34.0001 15.7909 34.0001 18V24C34.0001 26.2091 32.2093 28 30.0001 28H28.0001M20.0001 20H18.0001C15.791 20 14.0001 21.7909 14.0001 24V30C14.0001 32.2091 15.791 34 18.0001 34H24.0001C26.2093 34 28.0001 32.2091 28.0001 30V28M20.0001 20H24.0001C26.2093 20 28.0001 21.7909 28.0001 24V28" stroke="#5B4CCC" stroke-width="1.5" stroke-linejoin="round"/>
</svg>
