<svg width="20" height="22" viewBox="0 0 20 22" fill="none" xmlns="http://www.w3.org/2000/svg">
<path d="M18.75 8.75V6.25C18.75 4.04086 16.9591 2.25 14.75 2.25H4.75C2.54086 2.25 0.75 4.04086 0.75 6.25V16.75C0.75 18.9591 2.54086 20.75 4.75 20.75H6.75M5.75 0.75V3.75M13.75 7.75H5.75M11.75 11.75H5.75M7.75 15.75H5.75M13.75 0.75V3.75M9.75 20.75L12.8108 19.8774C12.9749 19.8306 13.1243 19.7428 13.245 19.6221L18.2598 14.6073C18.9134 13.9537 18.9134 12.8939 18.2598 12.2402C17.6061 11.5866 16.5463 11.5866 15.8927 12.2402L10.8779 17.255C10.7572 17.3757 10.6694 17.5251 10.6226 17.6892L9.75 20.75Z" stroke="#28303F" stroke-width="1.5" stroke-linecap="round"/>
</svg>
