<svg width="32" height="32" viewBox="0 0 32 32" fill="none" xmlns="http://www.w3.org/2000/svg">
<rect width="32" height="32" rx="8" fill="#F3F1FF"/>
<path d="M17.9153 11.5989L19.2941 10.22C19.8018 9.71234 20.6249 9.71234 21.1326 10.22C21.6403 10.7277 21.6403 11.5508 21.1326 12.0585L19.7538 13.4374" stroke="#5B4CCC" stroke-width="0.975" stroke-linecap="round"/>
<path d="M17.9146 11.5964L14.0799 15.4311C13.5923 15.9186 13.3184 16.58 13.3184 17.2695L13.3184 18.0311L14.0799 18.0311C14.7695 18.0311 15.4308 17.7571 15.9184 17.2695L19.7531 13.4349" stroke="#5B4CCC" stroke-width="0.975" stroke-linecap="round"/>
<path d="M16.9961 10.6797L20.673 14.3566" stroke="#5B4CCC" stroke-width="0.975" stroke-linecap="round" stroke-linejoin="round"/>
<path d="M13.0494 21.3262C13.0494 22.0441 12.6128 22.3012 12.0744 22.3012C11.5359 22.3012 11.0994 22.0441 11.0994 21.3262C11.0994 20.6082 12.0744 19.7012 12.0744 19.7012C12.0744 19.7012 13.0494 20.6082 13.0494 21.3262Z" stroke="#5B4CCC" stroke-width="0.975" stroke-linejoin="round"/>
</svg>
