<svg width="20" height="20" viewBox="0 0 20 20" fill="none" xmlns="http://www.w3.org/2000/svg">
<path d="M3.33341 17.5V12.5M3.33341 12.5C4.25389 12.5 5.00008 11.7538 5.00008 10.8333V9.16667C5.00008 8.24619 4.25389 7.5 3.33341 7.5M3.33341 12.5C2.41294 12.5 1.66675 11.7538 1.66675 10.8333V9.16667C1.66675 8.24619 2.41294 7.5 3.33341 7.5M10.0001 17.5V11.6667M10.0001 4.16667V2.5M10.0001 4.16667C10.9206 4.16667 11.6667 4.91286 11.6667 5.83333V7.5C11.6667 8.42047 10.9206 9.16667 10.0001 9.16667C9.07961 9.16667 8.33341 8.42047 8.33341 7.5V5.83333C8.33341 4.91286 9.07961 4.16667 10.0001 4.16667ZM3.33341 7.5L3.33341 2.5M16.6667 8.33333V2.5M16.6667 17.5V15.8333M16.6667 15.8333C17.5872 15.8333 18.3334 15.0871 18.3334 14.1667V12.5C18.3334 11.5795 17.5872 10.8333 16.6667 10.8333C15.7463 10.8333 15.0001 11.5795 15.0001 12.5V14.1667C15.0001 15.0871 15.7463 15.8333 16.6667 15.8333Z" stroke="#28303F" stroke-width="1.25" stroke-linecap="round"/>
</svg>
