<svg width="20" height="15" viewBox="0 0 20 15" fill="none" xmlns="http://www.w3.org/2000/svg">
<path d="M5.47125 15C4.95325 15 4.51442 14.825 4.15475 14.475C3.79525 14.125 3.6155 13.6974 3.6155 13.1923V4.298L0 0H18.1443C18.6621 0 19.1008 0.175 19.4605 0.525C19.8202 0.875 20 1.30258 20 1.80775V13.1923C20 13.6974 19.8202 14.125 19.4605 14.475C19.1008 14.825 18.6621 15 18.1443 15H5.47125ZM3.223 1.5L5.11525 3.73075V13.1923C5.11525 13.2692 5.15217 13.3398 5.226 13.4038C5.29967 13.4679 5.38142 13.5 5.47125 13.5H18.1443C18.2339 13.5 18.3157 13.4679 18.3895 13.4038C18.4632 13.3398 18.5 13.2692 18.5 13.1923V1.80775C18.5 1.73075 18.4632 1.66025 18.3895 1.59625C18.3157 1.53208 18.2339 1.5 18.1443 1.5H3.223ZM11.548 12.5L12.6018 11.4462L11.175 10.096H15.9327V8.59625H7.55775L11.548 12.5ZM7.55775 6.40375H15.9327L11.952 2.5L10.898 3.55375L12.325 4.904H7.55775V6.40375Z" fill="#1F1F1F"/>
</svg>
