<svg width="148" height="144" viewBox="0 0 148 144" fill="none" xmlns="http://www.w3.org/2000/svg">
<g opacity="0.3">
<path d="M109.808 34.0774L75.7299 30.291L34.0788 34.0774L30.2917 71.9421L34.0781 109.807H71.9425H109.808V71.0308V34.0774Z" fill="#939598"/>
<path d="M49.6123 92.8241C46.7821 90.9118 44.8223 88.1196 43.7527 84.4277L50.3224 81.7204C50.9189 83.9924 51.9598 85.7527 53.4462 87.0025C54.9231 88.2522 56.7216 88.8671 58.8231 88.8671C60.9721 88.8671 62.8181 88.214 64.3606 86.9075C65.9029 85.601 66.6799 83.9349 66.6799 81.919C66.6799 79.8557 65.8655 78.17 64.2375 76.8644C62.6095 75.5586 60.5648 74.9046 58.1224 74.9046H54.3267V68.4017H57.7339C59.8353 68.4017 61.6059 67.8341 63.0448 66.6982C64.4834 65.5621 65.203 64.0096 65.203 62.0313C65.203 60.2708 64.5591 58.8693 63.272 57.8191C61.9849 56.7687 60.3562 56.2385 58.3777 56.2385C56.4467 56.2385 54.913 56.75 53.7771 57.7815C52.6411 58.8132 51.8173 60.0816 51.2972 61.5773L44.7944 58.87C45.6554 56.4276 47.2368 54.2694 49.5554 52.4045C51.875 50.5399 54.8375 49.6025 58.4347 49.6025C61.0944 49.6025 63.4893 50.114 65.6101 51.1456C67.7303 52.1773 69.3964 53.6067 70.5986 55.424C71.8008 57.2506 72.3973 59.2961 72.3973 61.5672C72.3973 63.8865 71.8389 65.8456 70.7217 67.4549C69.6043 69.0644 68.2317 70.2945 66.6037 71.1563V71.5442C68.7526 72.4434 70.5037 73.816 71.8857 75.6622C73.2583 77.5082 73.949 79.714 73.949 82.2887C73.949 84.8637 73.2958 87.1636 71.9892 89.1802C70.6828 91.1967 68.875 92.7865 66.5843 93.9413C64.2843 95.0959 61.7001 95.6829 58.8316 95.6829C55.5094 95.6924 52.4426 94.7361 49.6123 92.8241Z" fill="#939598"/>
<path d="M89.9282 60.223L82.7526 65.4389L79.1461 59.9675L92.0863 50.6338H97.0468V94.6603H89.9282V60.223Z" fill="#939598"/>
<path d="M109.808 143.884L143.885 109.806L126.846 109.806L109.808 109.806L109.807 126.845L109.808 143.884Z" fill="#939598"/>
<path d="M34.078 126.846V143.884H109.807V109.807H34.078V126.846Z" fill="#939598"/>
<path d="M11.3589 0C5.08346 0 0 5.08329 0 11.3589V109.806L17.0388 109.807L34.0777 109.806V34.0776H109.806L109.807 17.0388V0H11.3589Z" fill="#939598"/>
<path d="M0.000183105 109.807V132.525C0.000183105 138.802 5.08364 143.884 11.3591 143.884H34.0778V109.807H0.000183105Z" fill="#939598"/>
<path d="M109.807 34.0771V109.806H143.885V34.0771H126.972H109.807Z" fill="#939598"/>
<path d="M143.885 34.0777V11.3589C143.885 5.08275 138.802 0 132.526 0H109.807V34.0776L143.885 34.0777Z" fill="#939598"/>
</g>
<path d="M113.821 34.0774L79.743 30.291L38.0919 34.0774L34.3048 71.9421L38.0912 109.807H75.9556H113.821V71.0308L113.821 34.0774Z" fill="white"/>
<path d="M53.6256 92.8241C50.7954 90.9118 48.8356 88.1196 47.766 84.4277L54.3357 81.7204C54.9322 83.9924 55.9731 85.7527 57.4595 87.0025C58.9365 88.2522 60.7349 88.8671 62.8365 88.8671C64.9854 88.8671 66.8314 88.214 68.3739 86.9075C69.9162 85.601 70.6932 83.9349 70.6932 81.919C70.6932 79.8557 69.8788 78.17 68.2508 76.8644C66.6228 75.5586 64.578 74.9046 62.1356 74.9046H58.34V68.4017H61.7472C63.8485 68.4017 65.6192 67.8341 67.058 66.6982C68.4967 65.5621 69.2162 64.0096 69.2162 62.0313C69.2162 60.2708 68.5724 58.8693 67.2853 57.8191C65.9982 56.7687 64.3694 56.2385 62.3909 56.2385C60.46 56.2385 58.9262 56.75 57.7903 57.7815C56.6544 58.8132 55.8306 60.0816 55.3105 61.5773L48.8076 58.87C49.6687 56.4276 51.2501 54.2694 53.5687 52.4045C55.8882 50.5399 58.8507 49.6025 62.4479 49.6025C65.1077 49.6025 67.5025 50.114 69.6233 51.1456C71.7436 52.1773 73.4097 53.6067 74.6119 55.424C75.814 57.2506 76.4105 59.2961 76.4105 61.5672C76.4105 63.8865 75.8521 65.8456 74.7349 67.4549C73.6175 69.0644 72.2449 70.2945 70.6169 71.1563V71.5442C72.7658 72.4434 74.5169 73.816 75.899 75.6622C77.2716 77.5082 77.9622 79.714 77.9622 82.2887C77.9622 84.8637 77.309 87.1636 76.0024 89.1802C74.6961 91.1967 72.8882 92.7865 70.5975 93.9413C68.2975 95.0959 65.7133 95.6829 62.8449 95.6829C59.5228 95.6924 56.4559 94.7361 53.6256 92.8241Z" fill="#1A73E8"/>
<path d="M93.9415 60.223L86.7659 65.4389L83.1594 59.9675L96.0996 50.6338H101.06V94.6603H93.9415V60.223Z" fill="#1A73E8"/>
<path d="M113.821 143.884L147.898 109.806L130.859 109.806L113.821 109.806L113.82 126.845L113.821 143.884Z" fill="#EA4335"/>
<path d="M38.0911 126.846V143.884H113.82V109.807H38.0911V126.846Z" fill="#34A853"/>
<path d="M15.3724 0C9.09695 0 4.01349 5.08329 4.01349 11.3589V109.806L21.0523 109.807L38.0912 109.806V34.0776H113.82L113.821 17.0388V0H15.3724Z" fill="#4285F4"/>
<path d="M4.01349 109.807V132.525C4.01349 138.802 9.09695 143.884 15.3724 143.884H38.0912V109.807H4.01349Z" fill="#188038"/>
<path d="M113.82 34.0771V109.806H147.898V34.0771H130.985H113.82Z" fill="#FBBC04"/>
<path d="M147.898 34.0777V11.3589C147.898 5.08275 142.815 0 136.539 0H113.82V34.0776L147.898 34.0777Z" fill="#1967D2"/>
</svg>
