<svg width="80" height="80" viewBox="0 0 80 80" fill="none" xmlns="http://www.w3.org/2000/svg">
<path d="M0 12C0 5.37258 5.37258 0 12 0H68C74.6274 0 80 5.37258 80 12V68C80 74.6274 74.6274 80 68 80H12C5.37258 80 0 74.6274 0 68V12Z" fill="#F6FEFF"/>
<circle cx="39.9998" cy="48.3333" r="1.66667" transform="rotate(-180 39.9998 48.3333)" fill="#059A9F"/>
<path d="M40.0002 43.3335L40.0002 31.6668M56.6668 40.0002C56.6668 49.2049 49.2049 56.6668 40.0002 56.6668C30.7954 56.6668 23.3335 49.2049 23.3335 40.0002C23.3335 30.7954 30.7954 23.3335 40.0002 23.3335C49.2049 23.3335 56.6668 30.7954 56.6668 40.0002Z" stroke="#059A9F" stroke-width="2.5" stroke-linecap="round" stroke-linejoin="round"/>
</svg>
