<svg width="17" height="18" viewBox="0 0 17 18" fill="none" xmlns="http://www.w3.org/2000/svg">
<path d="M6.71797 0.912295L2.55312 2.76334C1.34843 3.29876 0.553438 4.49779 0.630096 5.81387C0.92979 10.959 2.43649 13.2242 6.3516 15.8747C7.38876 16.5769 8.7559 16.5786 9.79229 15.8753C13.7194 13.2103 15.1722 10.9132 15.4983 5.83169C15.5833 4.50691 14.787 3.29515 13.5739 2.756L9.42556 0.912295C8.56367 0.529235 7.57985 0.529235 6.71797 0.912295Z" stroke="#2A2A2A" stroke-width="1.25"/>
<path d="M10.5718 8.64394C10.5718 10.0247 9.45247 11.1439 8.07176 11.1439C6.69105 11.1439 5.57176 10.0247 5.57176 8.64394C5.57176 7.26323 6.69105 6.14394 8.07176 6.14394C9.45247 6.14394 10.5718 7.26323 10.5718 8.64394Z" stroke="#2A2A2A" stroke-width="1.25"/>
</svg>
