<svg width="48" height="48" viewBox="0 0 48 48" fill="none" xmlns="http://www.w3.org/2000/svg">
<path d="M0 24C0 10.7452 10.7452 0 24 0C37.2548 0 48 10.7452 48 24C48 37.2548 37.2548 48 24 48C10.7452 48 0 37.2548 0 24Z" fill="#787878"/>
<path d="M24 32.9616C21.991 32.3655 20.3221 31.1485 18.9933 29.3106C17.6644 27.4728 17 25.4026 17 23.1001V17.6924L24 15.0771L31 17.6924V23.1001C31 25.4026 30.3356 27.4728 29.0068 29.3106C27.6779 31.1485 26.009 32.3655 24 32.9616ZM24 31.9001C25.7333 31.3501 27.1667 30.2501 28.3 28.6001C29.4333 26.9501 30 25.1168 30 23.1001V18.3751L24 16.1444L18 18.3751V23.1001C18 25.1168 18.5667 26.9501 19.7 28.6001C20.8333 30.2501 22.2667 31.3501 24 31.9001Z" fill="white"/>
</svg>
