<svg width="48" height="48" viewBox="0 0 48 48" fill="none" xmlns="http://www.w3.org/2000/svg">
<path d="M0 24C0 10.7452 10.7452 0 24 0C37.2548 0 48 10.7452 48 24C48 37.2548 37.2548 48 24 48C10.7452 48 0 37.2548 0 24Z" fill="#787878"/>
<path d="M24.0044 27.1538C25.0206 27.1538 25.8828 26.7981 26.5912 26.0868C27.2995 25.3754 27.6537 24.5117 27.6537 23.4955C27.6537 22.4793 27.298 21.6171 26.5867 20.9087C25.8753 20.2004 25.0116 19.8462 23.9954 19.8462C22.9792 19.8462 22.117 20.2019 21.4087 20.9133C20.7003 21.6246 20.3462 22.4883 20.3462 23.5045C20.3462 24.5207 20.7018 25.3829 21.4132 26.0913C22.1245 26.7996 22.9882 27.1538 24.0044 27.1538ZM23.9999 26.2C23.2499 26.2 22.6124 25.9375 22.0874 25.4125C21.5624 24.8875 21.2999 24.25 21.2999 23.5C21.2999 22.75 21.5624 22.1125 22.0874 21.5875C22.6124 21.0625 23.2499 20.8 23.9999 20.8C24.7499 20.8 25.3874 21.0625 25.9124 21.5875C26.4374 22.1125 26.6999 22.75 26.6999 23.5C26.6999 24.25 26.4374 24.8875 25.9124 25.4125C25.3874 25.9375 24.7499 26.2 23.9999 26.2ZM24.0027 30C21.8367 30 19.8627 29.4106 18.0807 28.2317C16.2987 27.0529 14.9641 25.4757 14.0769 23.5C14.9641 21.5243 16.2977 19.9471 18.0779 18.7682C19.8581 17.5894 21.8312 17 23.9972 17C26.1632 17 28.1372 17.5894 29.9192 18.7682C31.7012 19.9471 33.0357 21.5243 33.9229 23.5C33.0357 25.4757 31.7021 27.0529 29.9219 28.2317C28.1417 29.4106 26.1687 30 24.0027 30ZM23.9999 29C25.8832 29 27.6124 28.5042 29.1874 27.5125C30.7624 26.5208 31.9666 25.1833 32.7999 23.5C31.9666 21.8167 30.7624 20.4792 29.1874 19.4875C27.6124 18.4958 25.8832 18 23.9999 18C22.1166 18 20.3874 18.4958 18.8124 19.4875C17.2374 20.4792 16.0332 21.8167 15.1999 23.5C16.0332 25.1833 17.2374 26.5208 18.8124 27.5125C20.3874 28.5042 22.1166 29 23.9999 29Z" fill="white"/>
</svg>
