<svg width="34" height="34" viewBox="0 0 34 34" fill="none" xmlns="http://www.w3.org/2000/svg">
<path d="M19.8334 8.50033C19.8334 6.93552 21.1019 5.66699 22.6667 5.66699H25.5C27.0648 5.66699 28.3334 6.93552 28.3334 8.50033V11.3337C28.3334 12.8985 27.0648 14.167 25.5 14.167H22.6667C21.1019 14.167 19.8334 12.8985 19.8334 11.3337V8.50033Z" stroke="#202020" stroke-width="2.125"/>
<path d="M5.66669 22.667C5.66669 21.1022 6.93521 19.8337 8.50002 19.8337H11.3334C12.8982 19.8337 14.1667 21.1022 14.1667 22.667V25.5003C14.1667 27.0651 12.8982 28.3337 11.3334 28.3337H8.50002C6.93521 28.3337 5.66669 27.0651 5.66669 25.5003V22.667Z" stroke="#202020" stroke-width="2.125"/>
<path d="M5.66669 8.50033C5.66669 6.93552 6.93521 5.66699 8.50002 5.66699H11.3334C12.8982 5.66699 14.1667 6.93552 14.1667 8.50033V11.3337C14.1667 12.8985 12.8982 14.167 11.3334 14.167H8.50002C6.93521 14.167 5.66669 12.8985 5.66669 11.3337V8.50033Z" stroke="#202020" stroke-width="2.125"/>
<path d="M19.8334 22.667C19.8334 21.1022 21.1019 19.8337 22.6667 19.8337H25.5C27.0648 19.8337 28.3334 21.1022 28.3334 22.667V25.5003C28.3334 27.0651 27.0648 28.3337 25.5 28.3337H22.6667C21.1019 28.3337 19.8334 27.0651 19.8334 25.5003V22.667Z" stroke="#202020" stroke-width="2.125"/>
</svg>
