<svg width="44" height="44" viewBox="0 0 44 44" fill="none" xmlns="http://www.w3.org/2000/svg">
<path d="M0 7.2C0 3.22355 3.22355 0 7.2 0H36.8C40.7765 0 44 3.22355 44 7.2V36.8C44 40.7765 40.7765 44 36.8 44H7.2C3.22355 44 0 40.7765 0 36.8V7.2Z" fill="#F3F1FF"/>
<path d="M12.75 12C12.75 11.5858 12.4142 11.25 12 11.25C11.5858 11.25 11.25 11.5858 11.25 12H12H12.75ZM32 32.75C32.4142 32.75 32.75 32.4142 32.75 32C32.75 31.5858 32.4142 31.25 32 31.25V32V32.75ZM25.5 18.25C25.0858 18.25 24.75 18.5858 24.75 19C24.75 19.4142 25.0858 19.75 25.5 19.75V19V18.25ZM28.2764 19.5528L27.6056 19.8882V19.8882L28.2764 19.5528ZM28.3292 21.3354C28.5144 21.7059 28.9649 21.8561 29.3354 21.6708C29.7059 21.4856 29.8561 21.0351 29.6708 20.6646L29 21L28.3292 21.3354ZM28.1272 19.9112L28.5384 19.284L27.284 18.4616L26.8728 19.0888L27.5 19.5L28.1272 19.9112ZM24.7644 23.6729L24.1372 23.2617V23.2617L24.7644 23.6729ZM23.0726 23.6424L22.431 24.0308V24.0308L23.0726 23.6424ZM21.1644 20.4901L20.5228 20.8784V20.8784L21.1644 20.4901ZM19.4304 20.5302L18.7716 20.1719L19.4304 20.5302ZM16.3411 24.6417C16.1432 25.0056 16.2778 25.461 16.6417 25.6589C17.0056 25.8568 17.461 25.7222 17.6589 25.3583L17 25L16.3411 24.6417ZM12 12H11.25V28H12H12.75V12H12ZM16 32V32.75H32V32V31.25H16V32ZM12 28H11.25C11.25 30.6234 13.3766 32.75 16 32.75V32V31.25C14.2051 31.25 12.75 29.7949 12.75 28H12ZM25.5 19V19.75H27.382V19V18.25H25.5V19ZM28.2764 19.5528L27.6056 19.8882L28.3292 21.3354L29 21L29.6708 20.6646L28.9472 19.2174L28.2764 19.5528ZM27.382 19V19.75C27.4767 19.75 27.5632 19.8035 27.6056 19.8882L28.2764 19.5528L28.9472 19.2174C28.6508 18.6245 28.0448 18.25 27.382 18.25V19ZM27.5 19.5L26.8728 19.0888L24.1372 23.2617L24.7644 23.6729L25.3917 24.084L28.1272 19.9112L27.5 19.5ZM23.0726 23.6424L23.7142 23.2541L21.8061 20.1017L21.1644 20.4901L20.5228 20.8784L22.431 24.0308L23.0726 23.6424ZM19.4304 20.5302L18.7716 20.1719L16.3411 24.6417L17 25L17.6589 25.3583L20.0893 20.8885L19.4304 20.5302ZM21.1644 20.4901L21.8061 20.1017C21.1065 18.946 19.4169 18.9851 18.7716 20.1719L19.4304 20.5302L20.0893 20.8885C20.1815 20.7189 20.4229 20.7133 20.5228 20.8784L21.1644 20.4901ZM24.7644 23.6729L24.1372 23.2617C24.0363 23.4155 23.8095 23.4114 23.7142 23.2541L23.0726 23.6424L22.431 24.0308C23.0978 25.1323 24.6857 25.1609 25.3917 24.084L24.7644 23.6729Z" fill="#5B4CCC"/>
</svg>
