<svg width="64" height="64" viewBox="0 0 64 64" fill="none" xmlns="http://www.w3.org/2000/svg">
<path d="M0 12C0 5.37258 5.37258 0 12 0H52C58.6274 0 64 5.37258 64 12V52C64 58.6274 58.6274 64 52 64H12C5.37258 64 0 58.6274 0 52V12Z" fill="#F3F1FF"/>
<path d="M23 38H22.25H23ZM23 26H23.75H23ZM27 22V21.25V22ZM37 22V21.25V22ZM41 26H40.25V26H41ZM41 32.3431H41.75V32.3431H41ZM31.3431 42V41.25V41.25V42ZM27 42V42.75V42.75V42ZM39.8284 35.1716L39.2981 34.6412V34.6412L39.8284 35.1716ZM34.1716 40.8284L34.7019 41.3588V41.3588L34.1716 40.8284ZM33 38H32.25V38H33ZM37 34V33.25V33.25V34ZM28 26.25C27.5858 26.25 27.25 26.5858 27.25 27C27.25 27.4142 27.5858 27.75 28 27.75V27V26.25ZM36 27.75C36.4142 27.75 36.75 27.4142 36.75 27C36.75 26.5858 36.4142 26.25 36 26.25V27V27.75ZM28 31.25C27.5858 31.25 27.25 31.5858 27.25 32C27.25 32.4142 27.5858 32.75 28 32.75V32V31.25ZM32 32.75C32.4142 32.75 32.75 32.4142 32.75 32C32.75 31.5858 32.4142 31.25 32 31.25V32V32.75ZM23 38H23.75L23.75 26H23H22.25L22.25 38H23ZM27 22V22.75L37 22.75V22V21.25L27 21.25V22ZM41 26H40.25V32.3431H41H41.75V26H41ZM31.3431 42V41.25H27V42V42.75H31.3431V42ZM39.8284 35.1716L39.2981 34.6412L33.6412 40.2981L34.1716 40.8284L34.7019 41.3588L40.3588 35.7019L39.8284 35.1716ZM31.3431 42V42.75C32.6029 42.75 33.8111 42.2496 34.7019 41.3588L34.1716 40.8284L33.6412 40.2981C33.0317 40.9076 32.2051 41.25 31.3431 41.25V42ZM41 32.3431H40.25C40.25 33.2051 39.9076 34.0318 39.2981 34.6412L39.8284 35.1716L40.3588 35.7019C41.2496 34.8111 41.75 33.6029 41.75 32.3431H41ZM23 26H23.75C23.75 24.2051 25.2051 22.75 27 22.75V22V21.25C24.3766 21.25 22.25 23.3766 22.25 26H23ZM23 38H22.25C22.25 40.6234 24.3766 42.75 27 42.75V42V41.25C25.2051 41.25 23.75 39.7949 23.75 38H23ZM37 22V22.75C38.7949 22.75 40.25 24.2051 40.25 26H41H41.75C41.75 23.3766 39.6234 21.25 37 21.25V22ZM33 42H33.75V38H33H32.25V42H33ZM37 34V34.75L41 34.75V34V33.25L37 33.25V34ZM33 38H33.75C33.75 36.2051 35.2051 34.75 37 34.75V34V33.25C34.3766 33.25 32.25 35.3766 32.25 38H33ZM28 27V27.75H36V27V26.25H28V27ZM28 32V32.75H32V32V31.25H28V32Z" fill="#5B4CCC"/>
</svg>
