<svg width="24" height="24" viewBox="0 0 24 24" fill="none" xmlns="http://www.w3.org/2000/svg">
<path d="M15.9912 13.0031L21.2142 16.4851C21.2895 16.5352 21.377 16.564 21.4673 16.5683C21.5577 16.5726 21.6475 16.5524 21.7272 16.5097C21.8069 16.467 21.8736 16.4035 21.9201 16.3259C21.9666 16.2483 21.9912 16.1596 21.9912 16.0691V7.87313C21.9912 7.78516 21.968 7.69873 21.924 7.62258C21.8799 7.54643 21.8166 7.48326 21.7403 7.43943C21.664 7.39561 21.5775 7.37269 21.4895 7.37299C21.4015 7.37329 21.3152 7.39679 21.2392 7.44113L15.9912 10.5031" stroke="#28303F" stroke-width="1.5" stroke-linecap="round" stroke-linejoin="round"/>
<path d="M13.9873 6.00336H3.9873C2.88274 6.00336 1.9873 6.89879 1.9873 8.00336V16.0034C1.9873 17.1079 2.88274 18.0034 3.9873 18.0034H13.9873C15.0919 18.0034 15.9873 17.1079 15.9873 16.0034V8.00336C15.9873 6.89879 15.0919 6.00336 13.9873 6.00336Z" stroke="#28303F" stroke-width="1.5" stroke-linecap="round" stroke-linejoin="round"/>
</svg>
