<svg width="40" height="40" viewBox="0 0 40 40" fill="none" xmlns="http://www.w3.org/2000/svg">
<path d="M0 10C0 4.47715 4.47715 0 10 0H30C35.5228 0 40 4.47715 40 10V30C40 35.5228 35.5228 40 30 40H10C4.47715 40 0 35.5228 0 30V10Z" fill="#DBEAFE"/>
<g clip-path="url(#clip0_564_13967)">
<path d="M21.2215 23.0454C21.3592 23.1086 21.5143 23.1231 21.6613 23.0863C21.8083 23.0496 21.9384 22.9639 22.0302 22.8434L22.2668 22.5334C22.391 22.3678 22.5521 22.2334 22.7372 22.1408C22.9224 22.0482 23.1265 22 23.3335 22H25.3335C25.6871 22 26.0263 22.1405 26.2763 22.3906C26.5264 22.6406 26.6668 22.9798 26.6668 23.3334V25.3334C26.6668 25.687 26.5264 26.0261 26.2763 26.2762C26.0263 26.5262 25.6871 26.6667 25.3335 26.6667C22.1509 26.6667 19.0987 25.4024 16.8482 23.152C14.5978 20.9016 13.3335 17.8493 13.3335 14.6667C13.3335 14.3131 13.474 13.9739 13.724 13.7239C13.9741 13.4738 14.3132 13.3334 14.6668 13.3334H16.6668C17.0205 13.3334 17.3596 13.4738 17.6096 13.7239C17.8597 13.9739 18.0002 14.3131 18.0002 14.6667V16.6667C18.0002 16.8737 17.952 17.0779 17.8594 17.263C17.7668 17.4481 17.6324 17.6092 17.4668 17.7334L17.1548 17.9674C17.0324 18.0608 16.9462 18.1938 16.9107 18.3436C16.8752 18.4935 16.8927 18.651 16.9602 18.7894C17.8713 20.64 19.3698 22.1366 21.2215 23.0454Z" stroke="#155DFC" stroke-width="1.33333" stroke-linecap="round" stroke-linejoin="round"/>
</g>
<defs>
<clipPath id="clip0_564_13967">
<rect width="16" height="16" fill="white" transform="translate(12 12)"/>
</clipPath>
</defs>
</svg>
