<svg width="32" height="32" viewBox="0 0 32 32" fill="none" xmlns="http://www.w3.org/2000/svg">
<path d="M0 10C0 4.47715 4.47715 0 10 0H22C27.5228 0 32 4.47715 32 10V22C32 27.5228 27.5228 32 22 32H10C4.47715 32 0 27.5228 0 22V10Z" fill="#DCFCE7"/>
<path d="M18.6667 16.6667L22.1487 18.988C22.1989 19.0214 22.2573 19.0406 22.3175 19.0435C22.3777 19.0464 22.4376 19.0329 22.4907 19.0044C22.5439 18.9759 22.5883 18.9336 22.6193 18.8819C22.6503 18.8302 22.6667 18.771 22.6667 18.7107V13.2467C22.6668 13.188 22.6513 13.1304 22.6219 13.0797C22.5926 13.0289 22.5503 12.9868 22.4995 12.9576C22.4486 12.9284 22.3909 12.9131 22.3323 12.9133C22.2736 12.9135 22.2161 12.9291 22.1654 12.9587L18.6667 15" stroke="#00A63E" stroke-width="1.33333" stroke-linecap="round" stroke-linejoin="round"/>
<path d="M17.3333 12H10.6666C9.93021 12 9.33325 12.597 9.33325 13.3333V18.6667C9.33325 19.403 9.93021 20 10.6666 20H17.3333C18.0696 20 18.6666 19.403 18.6666 18.6667V13.3333C18.6666 12.597 18.0696 12 17.3333 12Z" stroke="#00A63E" stroke-width="1.33333" stroke-linecap="round" stroke-linejoin="round"/>
</svg>
