<svg width="40" height="40" viewBox="0 0 40 40" fill="none" xmlns="http://www.w3.org/2000/svg">
<path d="M0 10C0 4.47715 4.47715 0 10 0H30C35.5228 0 40 4.47715 40 10V30C40 35.5228 35.5228 40 30 40H10C4.47715 40 0 35.5228 0 30V10Z" fill="#F3E8FF"/>
<path d="M22.6668 26V24.6667C22.6668 23.9594 22.3859 23.2811 21.8858 22.781C21.3857 22.281 20.7074 22 20.0002 22H16.0002C15.2929 22 14.6146 22.281 14.1145 22.781C13.6144 23.2811 13.3335 23.9594 13.3335 24.6667V26" stroke="#9810FA" stroke-width="1.33333" stroke-linecap="round" stroke-linejoin="round"/>
<path d="M22.6665 14.0853C23.2383 14.2336 23.7448 14.5675 24.1063 15.0347C24.4678 15.5019 24.664 16.0759 24.664 16.6667C24.664 17.2574 24.4678 17.8314 24.1063 18.2986C23.7448 18.7658 23.2383 19.0997 22.6665 19.248" stroke="#9810FA" stroke-width="1.33333" stroke-linecap="round" stroke-linejoin="round"/>
<path d="M26.6665 26V24.6667C26.6661 24.0758 26.4694 23.5019 26.1074 23.0349C25.7454 22.5679 25.2386 22.2344 24.6665 22.0867" stroke="#9810FA" stroke-width="1.33333" stroke-linecap="round" stroke-linejoin="round"/>
<path d="M18.0002 19.3333C19.4729 19.3333 20.6668 18.1394 20.6668 16.6667C20.6668 15.1939 19.4729 14 18.0002 14C16.5274 14 15.3335 15.1939 15.3335 16.6667C15.3335 18.1394 16.5274 19.3333 18.0002 19.3333Z" stroke="#9810FA" stroke-width="1.33333" stroke-linecap="round" stroke-linejoin="round"/>
</svg>
