<svg width="56" height="56" viewBox="0 0 56 56" fill="none" xmlns="http://www.w3.org/2000/svg">
<path d="M0 10C0 4.47715 4.47715 0 10 0H46C51.5229 0 56 4.47715 56 10V46C56 51.5229 51.5228 56 46 56H10C4.47715 56 0 51.5228 0 46V10Z" fill="#F3E8FF"/>
<path d="M23.3335 16.3334V21" stroke="#9810FA" stroke-width="2.33333" stroke-linecap="round" stroke-linejoin="round"/>
<path d="M32.6665 16.3334V21" stroke="#9810FA" stroke-width="2.33333" stroke-linecap="round" stroke-linejoin="round"/>
<path d="M36.1667 18.6666H19.8333C18.5447 18.6666 17.5 19.7113 17.5 21V37.3333C17.5 38.622 18.5447 39.6666 19.8333 39.6666H36.1667C37.4553 39.6666 38.5 38.622 38.5 37.3333V21C38.5 19.7113 37.4553 18.6666 36.1667 18.6666Z" stroke="#9810FA" stroke-width="2.33333" stroke-linecap="round" stroke-linejoin="round"/>
<path d="M17.5 25.6666H38.5" stroke="#9810FA" stroke-width="2.33333" stroke-linecap="round" stroke-linejoin="round"/>
<path d="M24.5 32.6667L26.8333 35L31.5 30.3334" stroke="#9810FA" stroke-width="2.33333" stroke-linecap="round" stroke-linejoin="round"/>
</svg>
