<svg width="40" height="40" viewBox="0 0 40 40" fill="none" xmlns="http://www.w3.org/2000/svg">
<path d="M0 10C0 4.47715 4.47715 0 10 0H30C35.5228 0 40 4.47715 40 10V30C40 35.5228 35.5228 40 30 40H10C4.47715 40 0 35.5228 0 30V10Z" fill="#DCFCE7"/>
<path d="M26.6668 16.6666L20.6728 20.4846C20.4694 20.6028 20.2384 20.665 20.0032 20.665C19.7679 20.665 19.5369 20.6028 19.3335 20.4846L13.3335 16.6666" stroke="#00A63E" stroke-width="1.33333" stroke-linecap="round" stroke-linejoin="round"/>
<path d="M25.3335 14.6666H14.6668C13.9304 14.6666 13.3335 15.2636 13.3335 16V24C13.3335 24.7363 13.9304 25.3333 14.6668 25.3333H25.3335C26.0699 25.3333 26.6668 24.7363 26.6668 24V16C26.6668 15.2636 26.0699 14.6666 25.3335 14.6666Z" stroke="#00A63E" stroke-width="1.33333" stroke-linecap="round" stroke-linejoin="round"/>
</svg>
