<svg width="16" height="16" viewBox="0 0 16 16" fill="none" xmlns="http://www.w3.org/2000/svg">
<g clip-path="url(#clip0_520_8353)">
<path d="M8.39059 1.72392C8.1406 1.47385 7.80151 1.33333 7.44792 1.33325H2.66659C2.31296 1.33325 1.97382 1.47373 1.72378 1.72378C1.47373 1.97382 1.33325 2.31296 1.33325 2.66659V7.44792C1.33333 7.80151 1.47385 8.1406 1.72392 8.39059L7.52659 14.1933C7.82959 14.4943 8.23942 14.6633 8.66659 14.6633C9.09375 14.6633 9.50358 14.4943 9.80659 14.1933L14.1933 9.80659C14.4943 9.50358 14.6633 9.09375 14.6633 8.66659C14.6633 8.23942 14.4943 7.82959 14.1933 7.52659L8.39059 1.72392Z" stroke="#787878" stroke-width="1.33333" stroke-linecap="round" stroke-linejoin="round"/>
<path d="M5.00008 5.33341C5.18418 5.33341 5.33341 5.18418 5.33341 5.00008C5.33341 4.81599 5.18418 4.66675 5.00008 4.66675C4.81599 4.66675 4.66675 4.81599 4.66675 5.00008C4.66675 5.18418 4.81599 5.33341 5.00008 5.33341Z" fill="#787878" stroke="#787878" stroke-width="1.33333" stroke-linecap="round" stroke-linejoin="round"/>
</g>
<defs>
<clipPath id="clip0_520_8353">
<rect width="16" height="16" fill="white"/>
</clipPath>
</defs>
</svg>
