<svg width="56" height="56" viewBox="0 0 56 56" fill="none" xmlns="http://www.w3.org/2000/svg">
<path d="M0 10C0 4.47715 4.47715 0 10 0H46C51.5229 0 56 4.47715 56 10V46C56 51.5229 51.5228 56 46 56H10C4.47715 56 0 51.5228 0 46V10Z" fill="#DBEAFE"/>
<path d="M28.0002 39.6667C34.4435 39.6667 39.6668 34.4434 39.6668 28C39.6668 21.5567 34.4435 16.3334 28.0002 16.3334C21.5568 16.3334 16.3335 21.5567 16.3335 28C16.3335 34.4434 21.5568 39.6667 28.0002 39.6667Z" stroke="#155DFC" stroke-width="2.33333" stroke-linecap="round" stroke-linejoin="round"/>
<path d="M28 35C31.866 35 35 31.866 35 28C35 24.134 31.866 21 28 21C24.134 21 21 24.134 21 28C21 31.866 24.134 35 28 35Z" stroke="#155DFC" stroke-width="2.33333" stroke-linecap="round" stroke-linejoin="round"/>
<path d="M27.9998 30.3333C29.2885 30.3333 30.3332 29.2886 30.3332 28C30.3332 26.7113 29.2885 25.6666 27.9998 25.6666C26.7112 25.6666 25.6665 26.7113 25.6665 28C25.6665 29.2886 26.7112 30.3333 27.9998 30.3333Z" stroke="#155DFC" stroke-width="2.33333" stroke-linecap="round" stroke-linejoin="round"/>
</svg>
