<svg width="40" height="45" viewBox="0 0 40 45" fill="none" xmlns="http://www.w3.org/2000/svg">
<rect y="2.22217" width="40" height="40" rx="17.7778" fill="#059A9F"/>
<g clip-path="url(#clip0_520_10061)">
<path d="M24.4432 16.6672H23.6098C23.6098 18.6616 21.9931 20.2783 19.9987 20.2783V21.1117V21.945C22.9136 21.945 25.2765 19.5821 25.2765 16.6672H24.4432ZM19.9987 21.1117V20.2783C18.0044 20.2783 16.3876 18.6616 16.3876 16.6672H15.5543H14.7209C14.7209 19.5821 17.0839 21.945 19.9987 21.945V21.1117ZM15.5543 16.6672H16.3876C16.3876 14.6729 18.0044 13.0561 19.9987 13.0561V12.2228V11.3894C17.0839 11.3894 14.7209 13.7524 14.7209 16.6672H15.5543ZM19.9987 12.2228V13.0561C21.9931 13.0561 23.6098 14.6729 23.6098 16.6672H24.4432H25.2765C25.2765 13.7524 22.9136 11.3894 19.9987 11.3894V12.2228ZM27.7765 28.3339H26.9432C26.9432 28.9221 26.4447 29.6789 25.1258 30.3384C23.8567 30.9729 22.0452 31.3894 19.9987 31.3894V32.2228V33.0561C22.2478 33.0561 24.3252 32.6021 25.8711 31.8291C27.3672 31.0811 28.6098 29.8935 28.6098 28.3339H27.7765ZM19.9987 32.2228V31.3894C17.9523 31.3894 16.1408 30.9729 14.8717 30.3384C13.5528 29.6789 13.0543 28.9221 13.0543 28.3339H12.2209H11.3876C11.3876 29.8935 12.6302 31.0811 14.1263 31.8291C15.6723 32.6021 17.7496 33.0561 19.9987 33.0561V32.2228ZM12.2209 28.3339H13.0543C13.0543 27.7457 13.5528 26.9888 14.8717 26.3294C16.1408 25.6949 17.9523 25.2783 19.9987 25.2783V24.445V23.6117C17.7496 23.6117 15.6723 24.0657 14.1263 24.8387C12.6302 25.5867 11.3876 26.7743 11.3876 28.3339H12.2209ZM19.9987 24.445V25.2783C22.0452 25.2783 23.8567 25.6949 25.1258 26.3294C26.4447 26.9888 26.9432 27.7457 26.9432 28.3339H27.7765H28.6098C28.6098 26.7743 27.3672 25.5867 25.8711 24.8387C24.3252 24.0657 22.2478 23.6117 19.9987 23.6117V24.445Z" fill="#F6FEFF"/>
</g>
<defs>
<clipPath id="clip0_520_10061">
<rect width="26.6667" height="26.6667" fill="white" transform="translate(6.66669 8.88879)"/>
</clipPath>
</defs>
</svg>
