<svg width="56" height="56" viewBox="0 0 56 56" fill="none" xmlns="http://www.w3.org/2000/svg">
<path d="M28 0.297852C43.2995 0.297852 55.7021 12.7005 55.7021 28C55.7021 43.2995 43.2995 55.7021 28 55.7021C12.7005 55.7021 0.297852 43.2995 0.297852 28C0.297852 12.7005 12.7005 0.297852 28 0.297852Z" fill="#F8F7FF"/>
<path d="M28 0.297852C43.2995 0.297852 55.7021 12.7005 55.7021 28C55.7021 43.2995 43.2995 55.7021 28 55.7021C12.7005 55.7021 0.297852 43.2995 0.297852 28C0.297852 12.7005 12.7005 0.297852 28 0.297852Z" stroke="#9C8EF4" stroke-width="0.595745"/>
<path d="M35.8293 38.0597V35.8235C35.8293 34.6374 35.3581 33.4999 34.5194 32.6612C33.6807 31.8225 32.5432 31.3513 31.3571 31.3513H24.6487C23.4626 31.3513 22.3251 31.8225 21.4864 32.6612C20.6477 33.4999 20.1765 34.6374 20.1765 35.8235V38.0597" stroke="#5B4CCC" stroke-width="2.23611" stroke-linecap="round" stroke-linejoin="round"/>
<path d="M28.0052 26.8802C30.4751 26.8802 32.4774 24.878 32.4774 22.408C32.4774 19.9381 30.4751 17.9358 28.0052 17.9358C25.5352 17.9358 23.533 19.9381 23.533 22.408C23.533 24.878 25.5352 26.8802 28.0052 26.8802Z" stroke="#5B4CCC" stroke-width="2.23611" stroke-linecap="round" stroke-linejoin="round"/>
</svg>
