<svg width="80" height="80" viewBox="0 0 80 80" fill="none" xmlns="http://www.w3.org/2000/svg">
<path d="M0 12C0 5.37258 5.37258 0 12 0H68C74.6274 0 80 5.37258 80 12V68C80 74.6274 74.6274 80 68 80H12C5.37258 80 0 74.6274 0 68V12Z" fill="#F6FEFF"/>
<path d="M28.3333 55C27.4167 55 26.6319 54.6736 25.9792 54.0208C25.3264 53.3681 25 52.5833 25 51.6667V35C25 32.2222 25.9722 29.8611 27.9167 27.9167C29.8611 25.9722 32.2222 25 35 25H45C47.7778 25 50.1389 25.9722 52.0833 27.9167C54.0278 29.8611 55 32.2222 55 35V51.6667C55 52.5833 54.6736 53.3681 54.0208 54.0208C53.3681 54.6736 52.5833 55 51.6667 55H28.3333ZM28.3333 51.6667H51.6667V35C51.6667 33.1667 51.0139 31.5972 49.7083 30.2917C48.4028 28.9861 46.8333 28.3333 45 28.3333H35C33.1667 28.3333 31.5972 28.9861 30.2917 30.2917C28.9861 31.5972 28.3333 33.1667 28.3333 35V51.6667ZM35 40C34.0833 40 33.2986 39.6736 32.6458 39.0208C31.9931 38.3681 31.6667 37.5833 31.6667 36.6667C31.6667 35.75 31.9931 34.9653 32.6458 34.3125C33.2986 33.6597 34.0833 33.3333 35 33.3333C35.9167 33.3333 36.7014 33.6597 37.3542 34.3125C38.0069 34.9653 38.3333 35.75 38.3333 36.6667C38.3333 37.5833 38.0069 38.3681 37.3542 39.0208C36.7014 39.6736 35.9167 40 35 40ZM45 40C44.0833 40 43.2986 39.6736 42.6458 39.0208C41.9931 38.3681 41.6667 37.5833 41.6667 36.6667C41.6667 35.75 41.9931 34.9653 42.6458 34.3125C43.2986 33.6597 44.0833 33.3333 45 33.3333C45.9167 33.3333 46.7014 33.6597 47.3542 34.3125C48.0069 34.9653 48.3333 35.75 48.3333 36.6667C48.3333 37.5833 48.0069 38.3681 47.3542 39.0208C46.7014 39.6736 45.9167 40 45 40ZM31.6667 51.6667V48.3333C31.6667 47.4167 31.9931 46.6319 32.6458 45.9792C33.2986 45.3264 34.0833 45 35 45H45C45.9167 45 46.7014 45.3264 47.3542 45.9792C48.0069 46.6319 48.3333 47.4167 48.3333 48.3333V51.6667H45V48.3333H41.6667V51.6667H38.3333V48.3333H35V51.6667H31.6667Z" fill="#059A9F"/>
</svg>
