<svg width="40" height="40" viewBox="0 0 40 40" fill="none" xmlns="http://www.w3.org/2000/svg">
<path d="M0 6.09231C0 2.72762 2.72762 0 6.09231 0H33.9077C37.2724 0 40 2.72762 40 6.09231V33.9077C40 37.2724 37.2724 40 33.9077 40H6.09231C2.72762 40 0 37.2724 0 33.9077V6.09231Z" fill="#F6FEFF"/>
<path d="M14.2563 27.3854C13.805 27.3854 13.4187 27.2248 13.0973 26.9034C12.7759 26.582 12.6152 26.1957 12.6152 25.7444V17.5393C12.6152 16.1718 13.0939 15.0094 14.0511 14.0521C15.0084 13.0948 16.1708 12.6162 17.5383 12.6162H22.4614C23.8289 12.6162 24.9913 13.0948 25.9486 14.0521C26.9058 15.0094 27.3845 16.1718 27.3845 17.5393V25.7444C27.3845 26.1957 27.2238 26.582 26.9024 26.9034C26.581 27.2248 26.1947 27.3854 25.7434 27.3854H14.2563ZM14.2563 25.7444H25.7434V17.5393C25.7434 16.6367 25.4221 15.8641 24.7793 15.2213C24.1366 14.5786 23.364 14.2572 22.4614 14.2572H17.5383C16.6357 14.2572 15.8631 14.5786 15.2204 15.2213C14.5776 15.8641 14.2563 16.6367 14.2563 17.5393V25.7444ZM17.5383 20.0008C17.087 20.0008 16.7007 19.8401 16.3793 19.5188C16.058 19.1974 15.8973 18.8111 15.8973 18.3598C15.8973 17.9085 16.058 17.5222 16.3793 17.2008C16.7007 16.8795 17.087 16.7188 17.5383 16.7188C17.9896 16.7188 18.3759 16.8795 18.6973 17.2008C19.0187 17.5222 19.1793 17.9085 19.1793 18.3598C19.1793 18.8111 19.0187 19.1974 18.6973 19.5188C18.3759 19.8401 17.9896 20.0008 17.5383 20.0008ZM22.4614 20.0008C22.0101 20.0008 21.6238 19.8401 21.3024 19.5188C20.981 19.1974 20.8204 18.8111 20.8204 18.3598C20.8204 17.9085 20.981 17.5222 21.3024 17.2008C21.6238 16.8795 22.0101 16.7188 22.4614 16.7188C22.9127 16.7188 23.299 16.8795 23.6204 17.2008C23.9417 17.5222 24.1024 17.9085 24.1024 18.3598C24.1024 18.8111 23.9417 19.1974 23.6204 19.5188C23.299 19.8401 22.9127 20.0008 22.4614 20.0008ZM15.8973 25.7444V24.1034C15.8973 23.6521 16.058 23.2658 16.3793 22.9444C16.7007 22.623 17.087 22.4624 17.5383 22.4624H22.4614C22.9127 22.4624 23.299 22.623 23.6204 22.9444C23.9417 23.2658 24.1024 23.6521 24.1024 24.1034V25.7444H22.4614V24.1034H20.8204V25.7444H19.1793V24.1034H17.5383V25.7444H15.8973Z" fill="#059A9F"/>
</svg>
