<svg width="24" height="24" viewBox="0 0 24 24" fill="none" xmlns="http://www.w3.org/2000/svg">
<path d="M6.97125 19.5C6.45325 19.5 6.01442 19.325 5.65475 18.975C5.29525 18.625 5.1155 18.1974 5.1155 17.6923V8.798L1.5 4.5H19.6443C20.1621 4.5 20.6008 4.675 20.9605 5.025C21.3202 5.375 21.5 5.80258 21.5 6.30775V17.6923C21.5 18.1974 21.3202 18.625 20.9605 18.975C20.6008 19.325 20.1621 19.5 19.6443 19.5H6.97125ZM4.723 6L6.61525 8.23075V17.6923C6.61525 17.7692 6.65217 17.8398 6.726 17.9038C6.79967 17.9679 6.88142 18 6.97125 18H19.6443C19.7339 18 19.8157 17.9679 19.8895 17.9038C19.9632 17.8398 20 17.7692 20 17.6923V6.30775C20 6.23075 19.9632 6.16025 19.8895 6.09625C19.8157 6.03208 19.7339 6 19.6443 6H4.723ZM13.048 17L14.1018 15.9462L12.675 14.596H17.4327V13.0963H9.05775L13.048 17ZM9.05775 10.9038H17.4327L13.452 7L12.398 8.05375L13.825 9.404H9.05775V10.9038Z" fill="#1F1F1F"/>
</svg>
