<svg width="20" height="20" viewBox="0 0 20 20" fill="none" xmlns="http://www.w3.org/2000/svg">
<path d="M8.64619 2.26874L4.48134 4.11979C3.27665 4.6552 2.48166 5.85424 2.55832 7.17031C2.85801 12.3155 4.36472 14.5806 8.27982 17.2312C9.31698 17.9334 10.6841 17.9351 11.7205 17.2318C15.6477 14.5668 17.1004 12.2696 17.4265 7.18813C17.5115 5.86336 16.7152 4.65159 15.5021 4.11245L11.3538 2.26874C10.4919 1.88568 9.50807 1.88568 8.64619 2.26874Z" stroke="#2A2A2A" stroke-width="1.25"/>
<path d="M12.5 10.0004C12.5 11.3811 11.3807 12.5004 9.99998 12.5004C8.61927 12.5004 7.49998 11.3811 7.49998 10.0004C7.49998 8.61967 8.61927 7.50039 9.99998 7.50039C11.3807 7.50039 12.5 8.61967 12.5 10.0004Z" stroke="#2A2A2A" stroke-width="1.25"/>
</svg>
