<svg width="20" height="21" viewBox="0 0 20 21" fill="none" xmlns="http://www.w3.org/2000/svg">
<g clip-path="url(#clip0_647_11960)">
<path d="M19.9905 10.426C19.9905 9.58738 19.9224 8.97543 19.7752 8.34082H10.1992V12.1258H15.8201C15.7068 13.0664 15.0948 14.483 13.7349 15.4349L13.7159 15.5616L16.7436 17.9071L16.9534 17.9281C18.8798 16.1489 19.9905 13.5311 19.9905 10.426Z" fill="#4285F4"/>
<path d="M10.1992 20.3988C12.953 20.3988 15.2648 19.4922 16.9534 17.9284L13.7349 15.4352C12.8737 16.0358 11.7177 16.4551 10.1992 16.4551C7.50211 16.4551 5.21297 14.6759 4.39695 12.2168L4.27734 12.227L1.12906 14.6634L1.08789 14.7779C2.76508 18.1096 6.21016 20.3988 10.1992 20.3988Z" fill="#34A853"/>
<path d="M4.39695 12.2164C4.18164 11.5818 4.05703 10.9018 4.05703 10.1993C4.05703 9.4966 4.18164 8.81668 4.38562 8.18207L4.37992 8.04691L1.19219 5.57129L1.08789 5.6209C0.396641 7.00348 0 8.55605 0 10.1993C0 11.8425 0.396641 13.395 1.08789 14.7775L4.39695 12.2164Z" fill="#FBBC05"/>
<path d="M10.1992 3.94367C12.1144 3.94367 13.4062 4.77094 14.1429 5.46227L17.0213 2.6518C15.2535 1.00859 12.953 0 10.1992 0C6.21016 0 2.76508 2.28914 1.08789 5.62086L4.38563 8.18203C5.21297 5.72289 7.50211 3.94367 10.1992 3.94367Z" fill="#EB4335"/>
</g>
<defs>
<clipPath id="clip0_647_11960">
<rect width="20" height="20.4688" fill="white"/>
</clipPath>
</defs>
</svg>
