<svg width="44" height="44" viewBox="0 0 44 44" fill="none" xmlns="http://www.w3.org/2000/svg">
<path d="M0 6C0 2.68629 2.68629 0 6 0H38C41.3137 0 44 2.68629 44 6V38C44 41.3137 41.3137 44 38 44H6C2.68629 44 0 41.3137 0 38V6Z" fill="#F6FEFF"/>
<path d="M26 12V15M18 12V15M20 22L21.2929 20.7071C21.6834 20.3166 22.3166 20.3166 22.7071 20.7071L24 22M22 26V21M17 32H27C29.2091 32 31 30.2091 31 28V17.5C31 15.2909 29.2091 13.5 27 13.5H17C14.7909 13.5 13 15.2909 13 17.5V28C13 30.2091 14.7909 32 17 32Z" stroke="#059A9F" stroke-width="1.5" stroke-linecap="round"/>
</svg>
