<svg width="20" height="20" viewBox="0 0 20 20" fill="none" xmlns="http://www.w3.org/2000/svg">
<path d="M9.99984 4.99996V1.66663H6.6665" stroke="#787878" stroke-width="1.25" stroke-linecap="round" stroke-linejoin="round"/>
<path d="M12.5 9.16663V10.8333" stroke="#787878" stroke-width="1.25" stroke-linecap="round" stroke-linejoin="round"/>
<path d="M1.6665 10H3.33317" stroke="#787878" stroke-width="1.25" stroke-linecap="round" stroke-linejoin="round"/>
<path d="M16.6665 10H18.3332" stroke="#787878" stroke-width="1.25" stroke-linecap="round" stroke-linejoin="round"/>
<path d="M16.6668 13.3333C16.6668 13.7754 16.4912 14.1993 16.1787 14.5118C15.8661 14.8244 15.4422 15 15.0002 15H7.35683C6.91484 15.0001 6.49098 15.1758 6.1785 15.4883L4.3435 17.3233C4.26075 17.4061 4.15533 17.4624 4.04057 17.4852C3.92581 17.508 3.80686 17.4963 3.69875 17.4516C3.59065 17.4068 3.49825 17.331 3.43323 17.2337C3.36822 17.1364 3.33351 17.022 3.3335 16.905V6.66667C3.3335 6.22464 3.50909 5.80072 3.82165 5.48816C4.13421 5.17559 4.55814 5 5.00016 5H15.0002C15.4422 5 15.8661 5.17559 16.1787 5.48816C16.4912 5.80072 16.6668 6.22464 16.6668 6.66667V13.3333Z" stroke="#787878" stroke-width="1.25" stroke-linecap="round" stroke-linejoin="round"/>
<path d="M7.5 9.16663V10.8333" stroke="#787878" stroke-width="1.25" stroke-linecap="round" stroke-linejoin="round"/>
</svg>
