<svg width="20" height="20" viewBox="0 0 20 20" fill="none" xmlns="http://www.w3.org/2000/svg">
<path d="M9.99984 9.99996H9.37484C9.37484 10.269 9.54698 10.5078 9.80219 10.5929L9.99984 9.99996ZM10.6248 5.83329C10.6248 5.48811 10.345 5.20829 9.99984 5.20829C9.65466 5.20829 9.37484 5.48811 9.37484 5.83329H9.99984H10.6248ZM12.3022 11.4262C12.6297 11.5354 12.9836 11.3584 13.0928 11.0309C13.2019 10.7035 13.0249 10.3495 12.6975 10.2404L12.4998 10.8333L12.3022 11.4262ZM9.99984 9.99996H10.6248V5.83329H9.99984H9.37484V9.99996H9.99984ZM9.99984 9.99996L9.80219 10.5929L12.3022 11.4262L12.4998 10.8333L12.6975 10.2404L10.1975 9.40703L9.99984 9.99996ZM18.3332 9.99996H17.7082C17.7082 14.2572 14.257 17.7083 9.99984 17.7083V18.3333V18.9583C14.9474 18.9583 18.9582 14.9475 18.9582 9.99996H18.3332ZM9.99984 18.3333V17.7083C5.74264 17.7083 2.2915 14.2572 2.2915 9.99996H1.6665H1.0415C1.0415 14.9475 5.05229 18.9583 9.99984 18.9583V18.3333ZM1.6665 9.99996H2.2915C2.2915 5.74276 5.74264 2.29163 9.99984 2.29163V1.66663V1.04163C5.05229 1.04163 1.0415 5.05241 1.0415 9.99996H1.6665ZM9.99984 1.66663V2.29163C14.257 2.29163 17.7082 5.74276 17.7082 9.99996H18.3332H18.9582C18.9582 5.05241 14.9474 1.04163 9.99984 1.04163V1.66663Z" fill="#787878"/>
</svg>
