<svg width="18" height="18" viewBox="0 0 18 18" fill="none" xmlns="http://www.w3.org/2000/svg">
<path d="M3 15.75V11.25M3 11.25C3.82843 11.25 4.5 10.5784 4.5 9.75V8.25C4.5 7.42157 3.82843 6.75 3 6.75M3 11.25C2.17157 11.25 1.5 10.5784 1.5 9.75V8.25C1.5 7.42157 2.17157 6.75 3 6.75M9 15.75V10.5M9 3.75V2.25M9 3.75C9.82843 3.75 10.5 4.42157 10.5 5.25V6.75C10.5 7.57843 9.82843 8.25 9 8.25C8.17157 8.25 7.5 7.57843 7.5 6.75V5.25C7.5 4.42157 8.17157 3.75 9 3.75ZM3 6.75L3 2.25M15 7.5V2.25M15 15.75V14.25M15 14.25C15.8284 14.25 16.5 13.5784 16.5 12.75V11.25C16.5 10.4216 15.8284 9.75 15 9.75C14.1716 9.75 13.5 10.4216 13.5 11.25V12.75C13.5 13.5784 14.1716 14.25 15 14.25Z" stroke="#28303F" stroke-width="1.125" stroke-linecap="round"/>
</svg>
